<svg xmlns="http://www.w3.org/2000/svg" width="1580" height="1100" viewBox="0 0 1580 1100" role="img" aria-labelledby="t d"><title id="t">YOVIA VC-002 서비스 흐름도</title><desc id="d">구조 탐색부터 품질 검증과 조건부 행동까지의 흐름</desc><defs><style>text{font-family:'Noto Sans KR','Malgun Gothic',sans-serif;fill:#111827}.title{font-size:28px;font-weight:700}.n{font-size:14px;font-weight:600}.u{fill:#eef7ff;stroke:#2563eb;stroke-width:2}.s{fill:#ecfdf5;stroke:#059669;stroke-width:2}.q{fill:#fff7ed;stroke:#ea580c;stroke-width:2}.e{fill:#fef2f2;stroke:#dc2626;stroke-width:2}.t{fill:#111827;stroke:#111827;stroke-width:2}.w{fill:#fff}.l{stroke:#64748b;stroke-width:2;fill:none;marker-end:url(#m)}</style><marker id="m" markerWidth="8" markerHeight="8" refX="7" refY="4" orient="auto"><path d="M0 0L8 4L0 8Z" fill="#64748b"/></marker></defs><rect width="1580" height="1100" fill="#fff"/><text x="40" y="50" class="title">YOVIA VC-002 서비스 흐름도</text><g class="l"><path d="M790 110V150M790 210V250"/><path d="M790 330L250 400M790 330L790 400M790 330L1280 400"/><path d="M250 460V520M790 460V520M1280 460V520"/><path d="M250 580L790 650M790 580V650M1280 580L790 650"/><path d="M790 710V750M790 830L520 900M790 830L1060 900"/><path d="M520 960L790 1020M1060 960L790 1020"/></g><ellipse cx="790" cy="90" rx="90" ry="30" class="t"/><text x="790" y="96" text-anchor="middle" class="n w">시작</text><rect x="700" y="150" width="180" height="60" rx="10" class="u"/><text x="790" y="186" text-anchor="middle" class="n">P00 홈</text><polygon points="790,250 910,290 790,330 670,290" class="q"/><text x="790" y="295" text-anchor="middle" class="n">확인 목적?</text><rect x="160" y="400" width="180" height="60" rx="10" class="u"/><text x="250" y="436" text-anchor="middle" class="n">P20 제품 구조</text><rect x="700" y="400" width="180" height="60" rx="10" class="u"/><text x="790" y="436" text-anchor="middle" class="n">P30 사용 방법</text><rect x="1190" y="400" width="180" height="60" rx="10" class="u"/><text x="1280" y="436" text-anchor="middle" class="n">P11 제품 상세</text><rect x="160" y="520" width="180" height="60" rx="10" class="u"/><text x="250" y="556" text-anchor="middle" class="n">P21 부품 상세</text><rect x="700" y="520" width="180" height="60" rx="10" class="u"/><text x="790" y="556" text-anchor="middle" class="n">P31 단계 상세</text><rect x="1190" y="520" width="180" height="60" rx="10" class="u"/><text x="1280" y="556" text-anchor="middle" class="n">P40 품질·검증</text><rect x="700" y="650" width="180" height="60" rx="10" class="u"/><text x="790" y="686" text-anchor="middle" class="n">P11 제품 상세</text><polygon points="790,750 910,790 790,830 670,790" class="q"/><text x="790" y="795" text-anchor="middle" class="n">검증 자료 있음?</text><rect x="430" y="900" width="180" height="60" rx="10" class="u"/><text x="520" y="936" text-anchor="middle" class="n">P41 시험 근거</text><rect x="970" y="900" width="180" height="60" rx="10" class="s"/><text x="1060" y="926" text-anchor="middle" class="n">P40 NOT_VERIFIED</text><text x="1060" y="948" text-anchor="middle" class="n">상태 안내</text><ellipse cx="790" cy="1020" rx="125" ry="32" class="t"/><text x="790" y="1026" text-anchor="middle" class="n w">P50 행동·결과 또는 복귀</text><text x="40" y="1070" class="n">타원=시작·종료 / 파랑=사용자 화면 / 초록=시스템 상태 / 마름모=판단. 로그인·오류 분기는 MD/MMD 전체 흐름에 포함됩니다.</text></svg>
