<svg id="my-svg" width="100%" xmlns="http://www.w3.org/2000/svg" xmlns:xlink="http://www.w3.org/1999/xlink" class="flowchart" style="max-width: 594.652px; background-color: transparent;" viewBox="-35 0 594.65234375 623" role="graphics-document document" aria-roledescription="flowchart-v2"><style>#my-svg{font-family:"trebuchet ms",verdana,arial,sans-serif;font-size:16px;fill:#333;}@keyframes edge-animation-frame{from{stroke-dashoffset:0;}}@keyframes dash{to{stroke-dashoffset:0;}}#my-svg .edge-animation-slow{stroke-dasharray:9,5!important;stroke-dashoffset:900;animation:dash 50s linear infinite;stroke-linecap:round;}#my-svg .edge-animation-fast{stroke-dasharray:9,5!important;stroke-dashoffset:900;animation:dash 20s linear infinite;stroke-linecap:round;}#my-svg .error-icon{fill:#552222;}#my-svg .error-text{fill:#552222;stroke:#552222;}#my-svg .edge-thickness-normal{stroke-width:1px;}#my-svg .edge-thickness-thick{stroke-width:3.5px;}#my-svg .edge-pattern-solid{stroke-dasharray:0;}#my-svg .edge-thickness-invisible{stroke-width:0;fill:none;}#my-svg .edge-pattern-dashed{stroke-dasharray:3;}#my-svg .edge-pattern-dotted{stroke-dasharray:2;}#my-svg .marker{fill:#333333;stroke:#333333;}#my-svg .marker.cross{stroke:#333333;}#my-svg svg{font-family:"trebuchet ms",verdana,arial,sans-serif;font-size:16px;}#my-svg p{margin:0;}#my-svg .label{font-family:"trebuchet ms",verdana,arial,sans-serif;color:#333;}#my-svg .cluster-label text{fill:#333;}#my-svg .cluster-label span{color:#333;}#my-svg .cluster-label span p{background-color:transparent;}#my-svg .label text,#my-svg span{fill:#333;color:#333;}#my-svg .node rect,#my-svg .node circle,#my-svg .node ellipse,#my-svg .node polygon,#my-svg .node path{fill:#ECECFF;stroke:#9370DB;stroke-width:1px;}#my-svg .rough-node .label text,#my-svg .node .label text,#my-svg .image-shape .label,#my-svg .icon-shape .label{text-anchor:middle;}#my-svg .node .katex path{fill:#000;stroke:#000;stroke-width:1px;}#my-svg .rough-node .label,#my-svg .node .label,#my-svg .image-shape .label,#my-svg .icon-shape .label{text-align:center;}#my-svg .node.clickable{cursor:pointer;}#my-svg .root .anchor path{fill:#333333!important;stroke-width:0;stroke:#333333;}#my-svg .arrowheadPath{fill:#333333;}#my-svg .edgePath .path{stroke:#333333;stroke-width:1px;}#my-svg .flowchart-link{stroke:#333333;fill:none;}#my-svg .edgeLabel{background-color:rgba(232,232,232, 0.8);text-align:center;}#my-svg .edgeLabel p{background-color:rgba(232,232,232, 0.8);}#my-svg .edgeLabel rect{opacity:0.5;background-color:rgba(232,232,232, 0.8);fill:rgba(232,232,232, 0.8);}#my-svg .labelBkg{background-color:rgba(232, 232, 232, 0.5);}#my-svg .cluster rect{fill:#ffffde;stroke:#aaaa33;stroke-width:1px;}#my-svg .cluster text{fill:#333;}#my-svg .cluster span{color:#333;}#my-svg div.mermaidTooltip{position:absolute;text-align:center;max-width:200px;padding:2px;font-family:"trebuchet ms",verdana,arial,sans-serif;font-size:12px;background:hsl(80, 100%, 96.2745098039%);border:1px solid #aaaa33;border-radius:2px;pointer-events:none;z-index:100;}#my-svg .flowchartTitleText{text-anchor:middle;font-size:18px;fill:#333;}#my-svg rect.text{fill:none;stroke-width:0;}#my-svg .icon-shape,#my-svg .image-shape{background-color:rgba(232,232,232, 0.8);text-align:center;}#my-svg .icon-shape p,#my-svg .image-shape p{background-color:rgba(232,232,232, 0.8);padding:2px;}#my-svg .icon-shape .label rect,#my-svg .image-shape .label rect{opacity:0.5;background-color:rgba(232,232,232, 0.8);fill:rgba(232,232,232, 0.8);}#my-svg .label-icon{display:inline-block;height:1em;overflow:visible;vertical-align:-0.125em;}#my-svg .node .label-icon path{fill:currentColor;stroke:revert;stroke-width:revert;}#my-svg .node .neo-node{stroke:#9370DB;}#my-svg [data-look="neo"].node rect,#my-svg [data-look="neo"].cluster rect,#my-svg [data-look="neo"].node polygon{stroke:#9370DB;filter:drop-shadow(1px 2px 2px rgba(185, 185, 185, 1));}#my-svg [data-look="neo"].swimlane.cluster rect{filter:none;}#my-svg [data-look="neo"].node path{stroke:#9370DB;stroke-width:1px;}#my-svg [data-look="neo"].node .outer-path{filter:drop-shadow(1px 2px 2px rgba(185, 185, 185, 1));}#my-svg [data-look="neo"].node .neo-line path{stroke:#9370DB;filter:none;}#my-svg [data-look="neo"].node circle{stroke:#9370DB;filter:drop-shadow(1px 2px 2px rgba(185, 185, 185, 1));}#my-svg [data-look="neo"].node circle .state-start{fill:#000000;}#my-svg [data-look="neo"].icon-shape .icon{fill:#9370DB;filter:drop-shadow(1px 2px 2px rgba(185, 185, 185, 1));}#my-svg [data-look="neo"].icon-shape .icon-neo path{stroke:#9370DB;filter:drop-shadow(1px 2px 2px rgba(185, 185, 185, 1));}#my-svg :root{--mermaid-font-family:"trebuchet ms",verdana,arial,sans-serif;}</style><g><marker id="my-svg_flowchart-v2-pointEnd" class="marker flowchart-v2" viewBox="0 0 10 10" refX="5" refY="5" markerUnits="userSpaceOnUse" markerWidth="8" markerHeight="8" orient="auto"><path d="M 0 0 L 10 5 L 0 10 z" class="arrowMarkerPath" style="stroke-width: 1; stroke-dasharray: 1, 0;"/></marker><marker id="my-svg_flowchart-v2-pointStart" class="marker flowchart-v2" viewBox="0 0 10 10" refX="4.5" refY="5" markerUnits="userSpaceOnUse" markerWidth="8" markerHeight="8" orient="auto"><path d="M 0 5 L 10 10 L 10 0 z" class="arrowMarkerPath" style="stroke-width: 1; stroke-dasharray: 1, 0;"/></marker><marker id="my-svg_flowchart-v2-pointEnd-margin" class="marker flowchart-v2" viewBox="0 0 11.5 14" refX="11.5" refY="7" markerUnits="userSpaceOnUse" markerWidth="10.5" markerHeight="14" orient="auto"><path d="M 0 0 L 11.5 7 L 0 14 z" class="arrowMarkerPath" style="stroke-width: 0; stroke-dasharray: 1, 0;"/></marker><marker id="my-svg_flowchart-v2-pointStart-margin" class="marker flowchart-v2" viewBox="0 0 11.5 14" refX="1" refY="7" markerUnits="userSpaceOnUse" markerWidth="11.5" markerHeight="14" orient="auto"><polygon points="0,7 11.5,14 11.5,0" class="arrowMarkerPath" style="stroke-width: 0; stroke-dasharray: 1, 0;"/></marker><marker id="my-svg_flowchart-v2-circleEnd" class="marker flowchart-v2" viewBox="0 0 10 10" refX="11" refY="5" markerUnits="userSpaceOnUse" markerWidth="11" markerHeight="11" orient="auto"><circle cx="5" cy="5" r="5" class="arrowMarkerPath" style="stroke-width: 1; stroke-dasharray: 1, 0;"/></marker><marker id="my-svg_flowchart-v2-circleStart" class="marker flowchart-v2" viewBox="0 0 10 10" refX="-1" refY="5" markerUnits="userSpaceOnUse" markerWidth="11" markerHeight="11" orient="auto"><circle cx="5" cy="5" r="5" class="arrowMarkerPath" style="stroke-width: 1; stroke-dasharray: 1, 0;"/></marker><marker id="my-svg_flowchart-v2-circleEnd-margin" class="marker flowchart-v2" viewBox="0 0 10 10" refY="5" refX="12.25" markerUnits="userSpaceOnUse" markerWidth="14" markerHeight="14" orient="auto"><circle cx="5" cy="5" r="5" class="arrowMarkerPath" style="stroke-width: 0; stroke-dasharray: 1, 0;"/></marker><marker id="my-svg_flowchart-v2-circleStart-margin" class="marker flowchart-v2" viewBox="0 0 10 10" refX="-2" refY="5" markerUnits="userSpaceOnUse" markerWidth="14" markerHeight="14" orient="auto"><circle cx="5" cy="5" r="5" class="arrowMarkerPath" style="stroke-width: 0; stroke-dasharray: 1, 0;"/></marker><marker id="my-svg_flowchart-v2-crossEnd" class="marker cross flowchart-v2" viewBox="0 0 11 11" refX="12" refY="5.2" markerUnits="userSpaceOnUse" markerWidth="11" markerHeight="11" orient="auto"><path d="M 1,1 l 9,9 M 10,1 l -9,9" class="arrowMarkerPath" style="stroke-width: 2; stroke-dasharray: 1, 0;"/></marker><marker id="my-svg_flowchart-v2-crossStart" class="marker cross flowchart-v2" viewBox="0 0 11 11" refX="-1" refY="5.2" markerUnits="userSpaceOnUse" markerWidth="11" markerHeight="11" orient="auto"><path d="M 1,1 l 9,9 M 10,1 l -9,9" class="arrowMarkerPath" style="stroke-width: 2; stroke-dasharray: 1, 0;"/></marker><marker id="my-svg_flowchart-v2-crossEnd-margin" class="marker cross flowchart-v2" viewBox="0 0 15 15" refX="17.7" refY="7.5" markerUnits="userSpaceOnUse" markerWidth="12" markerHeight="12" orient="auto"><path d="M 1,1 L 14,14 M 1,14 L 14,1" class="arrowMarkerPath" style="stroke-width: 2.5;"/></marker><marker id="my-svg_flowchart-v2-crossStart-margin" class="marker cross flowchart-v2" viewBox="0 0 15 15" refX="-3.5" refY="7.5" markerUnits="userSpaceOnUse" markerWidth="12" markerHeight="12" orient="auto"><path d="M 1,1 L 14,14 M 1,14 L 14,1" class="arrowMarkerPath" style="stroke-width: 2.5; stroke-dasharray: 1, 0;"/></marker><g class="root"><g class="clusters"/><g class="edgePaths"><path d="M299.941,47.5L299.858,51.583C299.775,55.667,299.608,63.833,299.525,71.417C299.441,79,299.441,86,299.441,89.5L299.441,93" id="my-svg-L_START_MAIN001_0" class="edge-thickness-normal edge-pattern-solid edge-thickness-normal edge-pattern-solid flowchart-link" style=";" data-edge="true" data-et="edge" data-id="L_START_MAIN001_0" data-points="W3sieCI6Mjk5Ljk0MTQwNjI1LCJ5Ijo0Ny41fSx7IngiOjI5OS40NDE0MDYyNSwieSI6NzJ9LHsieCI6Mjk5LjQ0MTQwNjI1LCJ5Ijo5N31d" data-look="classic" marker-end="url(#my-svg_flowchart-v2-pointEnd)"/><path d="M183.746,142.43L148.622,148.025C113.497,153.62,43.249,164.81,8.124,181.072C-27,197.333,-27,218.667,-27,240C-27,261.333,-27,282.667,-5.324,298.589C16.351,314.512,59.703,325.024,81.378,330.279L103.054,335.535" id="my-svg-L_MAIN001_CATEGORY001_0" class="edge-thickness-normal edge-pattern-solid edge-thickness-normal edge-pattern-solid flowchart-link" style=";" data-edge="true" data-et="edge" data-id="L_MAIN001_CATEGORY001_0" data-points="W3sieCI6MTgzLjc0NjA5Mzc1LCJ5IjoxNDIuNDI5NTEzMzM2Mjg1fSx7IngiOi0yNywieSI6MTc2fSx7IngiOi0yNywieSI6MjQwfSx7IngiOi0yNywieSI6MzA0fSx7IngiOjEwNi45NDE0MDYyNSwieSI6MzM2LjQ3Nzg1MjI2OTUzMTg3fV0=" data-look="classic" marker-end="url(#my-svg_flowchart-v2-pointEnd)"/><path d="M183.746,149.717L164.038,154.097C144.331,158.478,104.915,167.239,89.428,175.345C73.941,183.451,82.381,190.902,86.601,194.627L90.822,198.353" id="my-svg-L_MAIN001_BRAND001_0" class="edge-thickness-normal edge-pattern-solid edge-thickness-normal edge-pattern-solid flowchart-link" style=";" data-edge="true" data-et="edge" data-id="L_MAIN001_BRAND001_0" data-points="W3sieCI6MTgzLjc0NjA5Mzc1LCJ5IjoxNDkuNzE2NTA4ODc0NzUxNjR9LHsieCI6NjUuNSwieSI6MTc2fSx7IngiOjkzLjgyMDMxMjUsInkiOjIwMX1d" data-look="classic" marker-end="url(#my-svg_flowchart-v2-pointEnd)"/><path d="M230.848,407L230.197,411.167C229.546,415.333,228.243,423.667,228.268,431.345C228.292,439.024,229.643,446.048,230.318,449.56L230.994,453.072" id="my-svg-L_CATEGORY001_TASK001_0" class="edge-thickness-normal edge-pattern-solid edge-thickness-normal edge-pattern-solid flowchart-link" style=";" data-edge="true" data-et="edge" data-id="L_CATEGORY001_TASK001_0" data-points="W3sieCI6MjMwLjg0NzY1NjI1LCJ5Ijo0MDd9LHsieCI6MjI2Ljk0MTQwNjI1LCJ5Ijo0MzJ9LHsieCI6MjMxLjc0OTA5ODU1NzY5MjMyLCJ5Ijo0NTd9XQ==" data-look="classic" marker-end="url(#my-svg_flowchart-v2-pointEnd)"/><path d="M329.459,329L339.344,324.833C349.228,320.667,368.997,312.333,378.881,297.5C388.766,282.667,388.766,261.333,388.766,240C388.766,218.667,388.766,197.333,382.184,182.835C375.603,168.337,362.441,160.675,355.859,156.844L349.278,153.012" id="my-svg-L_CATEGORY001_MAIN001_0" class="edge-thickness-normal edge-pattern-solid edge-thickness-normal edge-pattern-solid flowchart-link" style=";" data-edge="true" data-et="edge" data-id="L_CATEGORY001_MAIN001_0" data-points="W3sieCI6MzI5LjQ1OTI4OTU1MDc4MTI1LCJ5IjozMjl9LHsieCI6Mzg4Ljc2NTYyNSwieSI6MzA0fSx7IngiOjM4OC43NjU2MjUsInkiOjI0MH0seyJ4IjozODguNzY1NjI1LCJ5IjoxNzZ9LHsieCI6MzQ1LjgyMTI4OTA2MjUsInkiOjE1MX1d" data-look="classic" marker-end="url(#my-svg_flowchart-v2-pointEnd)"/><path d="M138,279L138,283.167C138,287.333,138,295.667,143.882,303.638C149.763,311.609,161.527,319.218,167.409,323.023L173.29,326.827" id="my-svg-L_BRAND001_CATEGORY001_0" class="edge-thickness-normal edge-pattern-solid edge-thickness-normal edge-pattern-solid flowchart-link" style=";" data-edge="true" data-et="edge" data-id="L_BRAND001_CATEGORY001_0" data-points="W3sieCI6MTM4LCJ5IjoyNzl9LHsieCI6MTM4LCJ5IjozMDR9LHsieCI6MTc2LjY0ODk4NjgxNjQwNjI1LCJ5IjozMjl9XQ==" data-look="classic" marker-end="url(#my-svg_flowchart-v2-pointEnd)"/><path d="M192.199,201L197.989,196.833C203.78,192.667,215.36,184.333,226.419,176.389C237.477,168.444,248.012,160.888,253.279,157.109L258.547,153.331" id="my-svg-L_BRAND001_MAIN001_0" class="edge-thickness-normal edge-pattern-solid edge-thickness-normal edge-pattern-solid flowchart-link" style=";" data-edge="true" data-et="edge" data-id="L_BRAND001_MAIN001_0" data-points="W3sieCI6MTkyLjE5ODY2OTQzMzU5Mzc1LCJ5IjoyMDF9LHsieCI6MjI2Ljk0MTQwNjI1LCJ5IjoxNzZ9LHsieCI6MjYxLjc5NzE3NTQ4MDc2OTIsInkiOjE1MX1d" data-look="classic" marker-end="url(#my-svg_flowchart-v2-pointEnd)"/><path d="M236.941,511L236.941,515.167C236.941,519.333,236.941,527.667,256.469,536.494C275.996,545.321,315.051,554.642,334.578,559.302L354.105,563.962" id="my-svg-L_TASK001_TASK002_0" class="edge-thickness-normal edge-pattern-solid edge-thickness-normal edge-pattern-solid flowchart-link" style=";" data-edge="true" data-et="edge" data-id="L_TASK001_TASK002_0" data-points="W3sieCI6MjM2Ljk0MTQwNjI1LCJ5Ijo1MTF9LHsieCI6MjM2Ljk0MTQwNjI1LCJ5Ijo1MzZ9LHsieCI6MzU3Ljk5NjA5Mzc1LCJ5Ijo1NjQuODkwOTYwNTkzNzgyNH1d" data-look="classic" marker-end="url(#my-svg_flowchart-v2-pointEnd)"/><path d="M302.044,457L312.091,452.833C322.137,448.667,342.231,440.333,344.708,432.303C347.186,424.273,332.048,416.546,324.478,412.682L316.909,408.819" id="my-svg-L_TASK001_CATEGORY001_0" class="edge-thickness-normal edge-pattern-solid edge-thickness-normal edge-pattern-solid flowchart-link" style=";" data-edge="true" data-et="edge" data-id="L_TASK001_CATEGORY001_0" data-points="W3sieCI6MzAyLjA0NDAyMDQzMjY5MjMsInkiOjQ1N30seyJ4IjozNjIuMzI0MjE4NzUsInkiOjQzMn0seyJ4IjozMTMuMzQ2NTU3NjE3MTg3NSwieSI6NDA3fV0=" data-look="classic" marker-end="url(#my-svg_flowchart-v2-pointEnd)"/><path d="M454.824,561L454.824,556.833C454.824,552.667,454.824,544.333,454.824,531.5C454.824,518.667,454.824,501.333,454.824,484C454.824,466.667,454.824,449.333,454.824,430C454.824,410.667,454.824,389.333,454.824,368C454.824,346.667,454.824,325.333,454.824,304C454.824,282.667,454.824,261.333,454.824,240C454.824,218.667,454.824,197.333,443.006,182.712C431.188,168.09,407.551,160.18,395.733,156.225L383.914,152.269" id="my-svg-L_TASK002_MAIN001_0" class="edge-thickness-normal edge-pattern-solid edge-thickness-normal edge-pattern-solid flowchart-link" style=";" data-edge="true" data-et="edge" data-id="L_TASK002_MAIN001_0" data-points="W3sieCI6NDU0LjgyNDIxODc1LCJ5Ijo1NjF9LHsieCI6NDU0LjgyNDIxODc1LCJ5Ijo1MzZ9LHsieCI6NDU0LjgyNDIxODc1LCJ5Ijo0ODR9LHsieCI6NDU0LjgyNDIxODc1LCJ5Ijo0MzJ9LHsieCI6NDU0LjgyNDIxODc1LCJ5IjozNjh9LHsieCI6NDU0LjgyNDIxODc1LCJ5IjozMDR9LHsieCI6NDU0LjgyNDIxODc1LCJ5IjoyNDB9LHsieCI6NDU0LjgyNDIxODc1LCJ5IjoxNzZ9LHsieCI6MzgwLjEyMDk0MzUwOTYxNTM2LCJ5IjoxNTF9XQ==" data-look="classic" marker-end="url(#my-svg_flowchart-v2-pointEnd)"/><path d="M465.209,561L466.811,556.833C468.414,552.667,471.619,544.333,447.301,534.501C422.984,524.668,371.143,513.336,345.223,507.67L319.302,502.004" id="my-svg-L_TASK002_TASK001_0" class="edge-thickness-normal edge-pattern-solid edge-thickness-normal edge-pattern-solid flowchart-link" style=";" data-edge="true" data-et="edge" data-id="L_TASK002_TASK001_0" data-points="W3sieCI6NDY1LjIwODgzNDEzNDYxNTM2LCJ5Ijo1NjF9LHsieCI6NDc0LjgyNDIxODc1LCJ5Ijo1MzZ9LHsieCI6MzE1LjM5NDUzMTI1LCJ5Ijo1MDEuMTQ5NDYzMDM2NTUyOX1d" data-look="classic" marker-end="url(#my-svg_flowchart-v2-pointEnd)"/><path d="M318.363,151L321.283,155.167C324.203,159.333,330.043,167.667,332.963,182.5C335.883,197.333,335.883,218.667,335.883,240C335.883,261.333,335.883,282.667,330.001,297.138C324.119,311.609,312.356,319.218,306.474,323.023L300.592,326.827" id="my-svg-L_MAIN001_CATEGORY001_2" class="edge-thickness-normal edge-pattern-solid edge-thickness-normal edge-pattern-solid flowchart-link" style=";" data-edge="true" data-et="edge" data-id="L_MAIN001_CATEGORY001_2" data-points="W3sieCI6MzE4LjM2MjkwNTY0OTAzODQ1LCJ5IjoxNTF9LHsieCI6MzM1Ljg4MjgxMjUsInkiOjE3Nn0seyJ4IjozMzUuODgyODEyNSwieSI6MjQwfSx7IngiOjMzNS44ODI4MTI1LCJ5IjozMDR9LHsieCI6Mjk3LjIzMzgyNTY4MzU5Mzc1LCJ5IjozMjl9XQ==" data-look="classic" marker-end="url(#my-svg_flowchart-v2-pointEnd)"/></g><g class="edgeLabels"><g class="edgeLabel"><g class="label" data-id="L_START_MAIN001_0" transform="translate(0, 0)"><foreignObject width="0" height="0"><div xmlns="http://www.w3.org/1999/xhtml" class="labelBkg" style="display: table-cell; white-space: nowrap; line-height: 1.5; max-width: 200px; text-align: center;"><span class="edgeLabel"></span></div></foreignObject></g></g><g class="edgeLabel"><g class="label" data-id="L_MAIN001_CATEGORY001_0" transform="translate(0, 0)"><foreignObject width="0" height="0"><div xmlns="http://www.w3.org/1999/xhtml" class="labelBkg" style="display: table-cell; white-space: nowrap; line-height: 1.5; max-width: 200px; text-align: center;"><span class="edgeLabel"></span></div></foreignObject></g></g><g class="edgeLabel"><g class="label" data-id="L_MAIN001_BRAND001_0" transform="translate(0, 0)"><foreignObject width="0" height="0"><div xmlns="http://www.w3.org/1999/xhtml" class="labelBkg" style="display: table-cell; white-space: nowrap; line-height: 1.5; max-width: 200px; text-align: center;"><span class="edgeLabel"></span></div></foreignObject></g></g><g class="edgeLabel"><g class="label" data-id="L_CATEGORY001_TASK001_0" transform="translate(0, 0)"><foreignObject width="0" height="0"><div xmlns="http://www.w3.org/1999/xhtml" class="labelBkg" style="display: table-cell; white-space: nowrap; line-height: 1.5; max-width: 200px; text-align: center;"><span class="edgeLabel"></span></div></foreignObject></g></g><g class="edgeLabel"><g class="label" data-id="L_CATEGORY001_MAIN001_0" transform="translate(0, 0)"><foreignObject width="0" height="0"><div xmlns="http://www.w3.org/1999/xhtml" class="labelBkg" style="display: table-cell; white-space: nowrap; line-height: 1.5; max-width: 200px; text-align: center;"><span class="edgeLabel"></span></div></foreignObject></g></g><g class="edgeLabel"><g class="label" data-id="L_BRAND001_CATEGORY001_0" transform="translate(0, 0)"><foreignObject width="0" height="0"><div xmlns="http://www.w3.org/1999/xhtml" class="labelBkg" style="display: table-cell; white-space: nowrap; line-height: 1.5; max-width: 200px; text-align: center;"><span class="edgeLabel"></span></div></foreignObject></g></g><g class="edgeLabel"><g class="label" data-id="L_BRAND001_MAIN001_0" transform="translate(0, 0)"><foreignObject width="0" height="0"><div xmlns="http://www.w3.org/1999/xhtml" class="labelBkg" style="display: table-cell; white-space: nowrap; line-height: 1.5; max-width: 200px; text-align: center;"><span class="edgeLabel"></span></div></foreignObject></g></g><g class="edgeLabel"><g class="label" data-id="L_TASK001_TASK002_0" transform="translate(0, 0)"><foreignObject width="0" height="0"><div xmlns="http://www.w3.org/1999/xhtml" class="labelBkg" style="display: table-cell; white-space: nowrap; line-height: 1.5; max-width: 200px; text-align: center;"><span class="edgeLabel"></span></div></foreignObject></g></g><g class="edgeLabel"><g class="label" data-id="L_TASK001_CATEGORY001_0" transform="translate(0, 0)"><foreignObject width="0" height="0"><div xmlns="http://www.w3.org/1999/xhtml" class="labelBkg" style="display: table-cell; white-space: nowrap; line-height: 1.5; max-width: 200px; text-align: center;"><span class="edgeLabel"></span></div></foreignObject></g></g><g class="edgeLabel"><g class="label" data-id="L_TASK002_MAIN001_0" transform="translate(0, 0)"><foreignObject width="0" height="0"><div xmlns="http://www.w3.org/1999/xhtml" class="labelBkg" style="display: table-cell; white-space: nowrap; line-height: 1.5; max-width: 200px; text-align: center;"><span class="edgeLabel"></span></div></foreignObject></g></g><g class="edgeLabel"><g class="label" data-id="L_TASK002_TASK001_0" transform="translate(0, 0)"><foreignObject width="0" height="0"><div xmlns="http://www.w3.org/1999/xhtml" class="labelBkg" style="display: table-cell; white-space: nowrap; line-height: 1.5; max-width: 200px; text-align: center;"><span class="edgeLabel"></span></div></foreignObject></g></g><g class="edgeLabel" transform="translate(335.8828125, 240)"><g class="label" data-id="L_MAIN001_CATEGORY001_2" transform="translate(-32.8828125, -12)"><foreignObject width="65.765625" height="24"><div xmlns="http://www.w3.org/1999/xhtml" class="labelBkg" style="display: table-cell; white-space: nowrap; line-height: 1.5; max-width: 200px; text-align: center;"><span class="edgeLabel"><p>상품 15개</p></span></div></foreignObject></g></g></g><g class="nodes"><g class="node default" id="my-svg-flowchart-START-0" data-look="classic" transform="translate(299.44140625, 27.5)"><g class="basic label-container outer-path"><path d="M-7.6015625 -19.5 C-2.3890847106969417 -19.5, 2.8233930786061165 -19.5, 7.6015625 -19.5 C7.6015625 -19.5, 7.601562499999999 -19.5, 7.601562499999999 -19.5 C7.87918251398606 -19.491097266506042, 8.15680252797212 -19.482194533012088, 8.8509317896239 -19.45993515863156 C9.264968504451474 -19.419993534704144, 9.679005219279048 -19.380051910776732, 10.095167152847864 -19.3399052695533 C10.499879499379674 -19.27447451595716, 10.904591845911483 -19.20904376236102, 11.329155759676757 -19.140403561325776 C11.746322251723724 -19.045188031781827, 12.16348874377069 -18.949972502237873, 12.54782688623539 -18.862249829261074 C12.888492584172514 -18.761142038304076, 13.229158282109639 -18.660034247347074, 13.746172751460602 -18.50658706670804 C14.0583139434774 -18.39171622264431, 14.370455135494197 -18.27684537858058, 14.919269095147794 -18.074876768247425 C15.269174833995555 -17.919983877244476, 15.619080572843316 -17.76509098624153, 16.06229541279238 -17.568892924097174 C16.433306905068267 -17.375336466221047, 16.804318397344154 -17.18178000834492, 17.170554764076783 -16.990714730406097 C17.425889278989114 -16.83592944695408, 17.681223793901445 -16.681144163502058, 18.239493073605697 -16.342718045390892 C18.52987784209294 -16.14015820144822, 18.820262610580183 -15.937598357505545, 19.264717844578712 -15.627565626425154 C19.485520484271625 -15.451481397075067, 19.706323123964534 -15.27539716772498, 20.24201620850187 -14.848196188198123 C20.477912055396963 -14.633961821510086, 20.71380790229206 -14.419727454822048, 21.167372236767985 -14.007812326905688 C21.408983519925137 -13.758328840390671, 21.650594803082285 -13.508845353875655, 22.036983442968648 -13.10986736009568 C22.325576092751895 -12.77087001227331, 22.614168742535146 -12.431872664450937, 22.847276408126582 -12.158051136245305 C23.105580281131513 -11.811947478385626, 23.363884154136443 -11.465843820525949, 23.594921464640635 -11.156274872382312 C23.850443169634342 -10.763724916326876, 24.10596487462805 -10.37117496027144, 24.276846378604247 -10.108655082055241 C24.433316576405353 -9.830826401533754, 24.589786774206456 -9.552997721012265, 24.8902489742735 -9.019496659696287 C25.06511409955138 -8.656385485542465, 25.239979224829263 -8.293274311388643, 25.43260864880834 -7.893275190886684 C25.619989178537487 -7.430441659699603, 25.807369708266634 -6.967608128512521, 25.901696729970325 -6.734618561215508 C26.005276268071317 -6.422653495613542, 26.10885580617231 -6.110688430011576, 26.29558563421488 -5.548287939305138 C26.41642639234591 -5.0874697558356505, 26.537267150476943 -4.626651572366164, 26.61265678754556 -4.339158212148133 C26.702835208930285 -3.876111077553686, 26.79301363031501 -3.413063942959239, 26.851607276581777 -3.1121979531509023 C26.89189511642099 -2.7997334230918023, 26.932182956260203 -2.487268893032702, 27.011455202509367 -1.872449005199798 C27.039567999504758 -1.4345694997552763, 27.06768079650015 -0.9966899943107547, 27.091543715913414 -0.6250057626472757 C27.091543715913414 -0.35052990072407275, 27.091543715913414 -0.0760540388008698, 27.091543715913414 0.625005762647271 C27.06005667412726 1.11544185434928, 27.02856963234111 1.6058779460512886, 27.011455202509367 1.8724490051997846 C26.958515034855957 2.2830424913010763, 26.905574867202546 2.693635977402368, 26.851607276581777 3.1121979531508885 C26.788858330289965 3.434400530364851, 26.726109383998153 3.756603107578813, 26.61265678754556 4.339158212148129 C26.539958135770256 4.616389679162351, 26.46725948399495 4.893621146176573, 26.295585634214884 5.548287939305125 C26.204057801285177 5.823955189109632, 26.11252996835547 6.099622438914139, 25.90169672997033 6.734618561215495 C25.776509035145022 7.043834587773434, 25.65132134031971 7.353050614331372, 25.432608648808344 7.893275190886679 C25.273253331870272 8.224179916166149, 25.113898014932204 8.555084641445617, 24.890248974273504 9.019496659696284 C24.760359223632417 9.250129064723021, 24.630469472991333 9.480761469749758, 24.27684637860425 10.108655082055236 C24.106236470236663 10.370757716482979, 23.93562656186907 10.63286035091072, 23.59492146464064 11.156274872382301 C23.334881565696055 11.504704646845903, 23.074841666751468 11.853134421309505, 22.847276408126582 12.158051136245302 C22.618036526565888 12.427329345245278, 22.388796645005193 12.696607554245253, 22.03698344296866 13.10986736009567 C21.733101753499618 13.42365015362315, 21.429220064030577 13.737432947150632, 21.16737223676799 14.007812326905684 C20.968461145171442 14.188458117394584, 20.769550053574896 14.369103907883481, 20.242016208501887 14.848196188198111 C19.9648183058679 15.06925413900273, 19.687620403233918 15.290312089807347, 19.264717844578715 15.627565626425152 C18.888778700717427 15.889804499039544, 18.512839556856136 16.152043371653935, 18.239493073605708 16.34271804539089 C17.872809698237894 16.56500366240956, 17.50612632287008 16.787289279428226, 17.170554764076787 16.990714730406093 C16.77144272589529 17.198931225081918, 16.37233068771379 17.407147719757745, 16.062295412792388 17.56889292409717 C15.670714867409746 17.742234015713898, 15.279134322027105 17.915575107330625, 14.919269095147804 18.07487676824742 C14.493354436984232 18.231617299563556, 14.06743977882066 18.38835783087969, 13.746172751460616 18.506587066708033 C13.306701830544048 18.637019729206134, 12.86723090962748 18.767452391704236, 12.547826886235413 18.86224982926107 C12.242892535333903 18.931849104971736, 11.937958184432393 19.0014483806824, 11.329155759676766 19.140403561325773 C11.028691512125405 19.188980290734836, 10.728227264574045 19.2375570201439, 10.095167152847878 19.3399052695533 C9.70289665379322 19.377747132822805, 9.31062615473856 19.415588996092307, 8.8509317896239 19.45993515863156 C8.565303020619877 19.469094717310846, 8.279674251615857 19.478254275990132, 7.6015625000000036 19.5 C7.601562500000003 19.5, 7.601562500000001 19.5, 7.6015625 19.5 C3.1092952919269896 19.5, -1.3829719161460208 19.5, -7.6015624999999964 19.5 C-7.984938629363581 19.487705873727677, -8.368314758727166 19.475411747455354, -8.850931789623893 19.45993515863156 C-9.30830862646005 19.4158125652581, -9.765685463296208 19.371689971884642, -10.095167152847871 19.3399052695533 C-10.487301064693511 19.27650809973, -10.879434976539152 19.2131109299067, -11.329155759676759 19.140403561325773 C-11.577587459922281 19.083700646913083, -11.826019160167805 19.02699773250039, -12.547826886235388 18.862249829261074 C-13.013651006049715 18.723995675660884, -13.47947512586404 18.585741522060694, -13.746172751460593 18.506587066708043 C-14.021949659327664 18.40509861535917, -14.297726567194735 18.303610164010298, -14.919269095147797 18.074876768247425 C-15.154684116359784 17.970665521695363, -15.390099137571768 17.866454275143305, -16.06229541279238 17.568892924097174 C-16.33159377748779 17.428400139729415, -16.600892142183195 17.287907355361657, -17.17055476407678 16.990714730406097 C-17.57883134009079 16.743215070726926, -17.9871079161048 16.49571541104775, -18.239493073605686 16.3427180453909 C-18.640529238762863 16.06297257715304, -19.041565403920043 15.783227108915181, -19.264717844578712 15.627565626425156 C-19.619226678125102 15.344854265548166, -19.973735511671492 15.062142904671179, -20.24201620850187 14.848196188198125 C-20.53815343816514 14.579252191579677, -20.834290667828405 14.310308194961229, -21.167372236767974 14.007812326905697 C-21.367290075038706 13.801380745331395, -21.56720791330944 13.594949163757091, -22.036983442968655 13.109867360095677 C-22.3072153079145 12.792437634901571, -22.577447172860346 12.475007909707463, -22.84727640812658 12.158051136245307 C-23.091793988622825 11.830419854390183, -23.33631156911907 11.502788572535058, -23.594921464640635 11.156274872382316 C-23.77406451964054 10.881063033256629, -23.953207574640444 10.605851194130944, -24.276846378604244 10.108655082055249 C-24.51445250009566 9.686761353118435, -24.75205862158708 9.26486762418162, -24.8902489742735 9.019496659696289 C-25.068069265682972 8.650249019839793, -25.245889557092443 8.281001379983296, -25.43260864880834 7.893275190886686 C-25.599605057945723 7.480790831661423, -25.766601467083106 7.068306472436159, -25.901696729970325 6.73461856121551 C-26.031788172397007 6.342803863882875, -26.16187961482369 5.950989166550242, -26.29558563421488 5.5482879393051325 C-26.366644620723378 5.277309226588664, -26.437703607231875 5.006330513872196, -26.612656787545557 4.339158212148136 C-26.688405559927414 3.9502042754760267, -26.764154332309268 3.5612503388039176, -26.851607276581777 3.112197953150904 C-26.91346048415748 2.632476689491133, -26.975313691733177 2.1527554258313617, -27.011455202509364 1.872449005199809 C-27.0427111279049 1.385612737835457, -27.073967053300436 0.8987764704711051, -27.091543715913414 0.6250057626472781 C-27.091543715913414 0.2146747431567695, -27.091543715913414 -0.19565627633373917, -27.091543715913414 -0.6250057626472687 C-27.064614907584218 -1.0444436889173327, -27.037686099255026 -1.4638816151873968, -27.011455202509367 -1.8724490051997822 C-26.966990633163803 -2.2173074245216213, -26.92252606381824 -2.5621658438434602, -26.851607276581777 -3.112197953150895 C-26.79434882934845 -3.4062079781169254, -26.73709038211512 -3.700218003082956, -26.61265678754556 -4.339158212148126 C-26.527346954458253 -4.66448157922557, -26.442037121370948 -4.989804946303014, -26.295585634214884 -5.548287939305123 C-26.20625152036786 -5.8173480567542555, -26.116917406520837 -6.086408174203389, -25.901696729970332 -6.734618561215485 C-25.78349344514031 -7.026582960050687, -25.665290160310285 -7.318547358885889, -25.432608648808344 -7.893275190886676 C-25.307163135369837 -8.153765483645735, -25.181717621931334 -8.414255776404795, -24.890248974273504 -9.019496659696282 C-24.761635100529748 -9.247863616095263, -24.633021226785992 -9.476230572494245, -24.276846378604247 -10.108655082055243 C-24.095119327202042 -10.387836633555054, -23.913392275799836 -10.667018185054864, -23.59492146464064 -11.156274872382308 C-23.338470115333184 -11.499896317255756, -23.082018766025723 -11.843517762129203, -22.847276408126586 -12.158051136245302 C-22.63220562934449 -12.410685510876746, -22.417134850562395 -12.663319885508193, -22.036983442968662 -13.10986736009567 C-21.747157424724758 -13.409136519091126, -21.457331406480858 -13.708405678086583, -21.167372236767996 -14.007812326905677 C-20.817051610904635 -14.325964250338945, -20.466730985041274 -14.644116173772213, -20.242016208501887 -14.848196188198107 C-19.906500453281016 -15.115761074537538, -19.57098469806014 -15.383325960876967, -19.26471784457872 -15.627565626425149 C-18.863611104620155 -15.907360324589323, -18.46250436466159 -16.187155022753497, -18.23949307360571 -16.342718045390885 C-17.990103937881962 -16.49389920503986, -17.740714802158212 -16.645080364688834, -17.17055476407679 -16.99071473040609 C-16.739884951828483 -17.215394895598852, -16.309215139580175 -17.440075060791614, -16.062295412792388 -17.56889292409717 C-15.811828305771614 -17.67976728253252, -15.561361198750843 -17.79064164096787, -14.919269095147806 -18.07487676824742 C-14.65093333452143 -18.17362680862651, -14.382597573895051 -18.272376849005592, -13.746172751460618 -18.506587066708033 C-13.442038277377044 -18.596852582181604, -13.13790380329347 -18.68711809765518, -12.547826886235413 -18.862249829261067 C-12.257407961447088 -18.928536053683406, -11.966989036658761 -18.994822278105747, -11.329155759676768 -19.140403561325773 C-11.024812109202593 -19.189607482514177, -10.720468458728417 -19.238811403702584, -10.09516715284788 -19.3399052695533 C-9.624365148036965 -19.385322972735157, -9.15356314322605 -19.43074067591701, -8.850931789623903 -19.45993515863156 C-8.456879643491881 -19.47257164398204, -8.062827497359857 -19.48520812933252, -7.601562500000006 -19.5 C-7.601562500000004 -19.5, -7.601562500000003 -19.5, -7.6015625 -19.5" stroke="none" stroke-width="0" fill="#ECECFF" style=""/><path d="M-7.6015625 -19.5 C-3.061383872959972 -19.5, 1.478794754080056 -19.5, 7.6015625 -19.5 M-7.6015625 -19.5 C-2.804887691715029 -19.5, 1.9917871165699417 -19.5, 7.6015625 -19.5 M7.6015625 -19.5 C7.6015625 -19.5, 7.601562499999999 -19.5, 7.601562499999999 -19.5 M7.6015625 -19.5 C7.6015625 -19.5, 7.601562499999999 -19.5, 7.601562499999999 -19.5 M7.601562499999999 -19.5 C7.899062022399596 -19.490459769364335, 8.196561544799192 -19.480919538728674, 8.8509317896239 -19.45993515863156 M7.601562499999999 -19.5 C7.8752363879726275 -19.491223811086627, 8.148910275945257 -19.48244762217325, 8.8509317896239 -19.45993515863156 M8.8509317896239 -19.45993515863156 C9.318621260364107 -19.414817717868132, 9.786310731104317 -19.369700277104705, 10.095167152847864 -19.3399052695533 M8.8509317896239 -19.45993515863156 C9.113692308539074 -19.43458696738757, 9.376452827454248 -19.40923877614358, 10.095167152847864 -19.3399052695533 M10.095167152847864 -19.3399052695533 C10.512110303707786 -19.272497134364695, 10.929053454567708 -19.205088999176088, 11.329155759676757 -19.140403561325776 M10.095167152847864 -19.3399052695533 C10.370651817658295 -19.29536704536223, 10.646136482468727 -19.250828821171165, 11.329155759676757 -19.140403561325776 M11.329155759676757 -19.140403561325776 C11.78174670629336 -19.037102631192475, 12.234337652909963 -18.933801701059174, 12.54782688623539 -18.862249829261074 M11.329155759676757 -19.140403561325776 C11.593765547934076 -19.080008103896283, 11.858375336191394 -19.01961264646679, 12.54782688623539 -18.862249829261074 M12.54782688623539 -18.862249829261074 C12.937908735066598 -18.74647558410938, 13.327990583897806 -18.630701338957685, 13.746172751460602 -18.50658706670804 M12.54782688623539 -18.862249829261074 C12.879652448080497 -18.763765744293362, 13.211478009925607 -18.665281659325654, 13.746172751460602 -18.50658706670804 M13.746172751460602 -18.50658706670804 C14.021454785656577 -18.40528073344469, 14.296736819852551 -18.303974400181342, 14.919269095147794 -18.074876768247425 M13.746172751460602 -18.50658706670804 C14.125787127704758 -18.366885467133365, 14.505401503948915 -18.227183867558686, 14.919269095147794 -18.074876768247425 M14.919269095147794 -18.074876768247425 C15.22750421609874 -17.938430223672437, 15.535739337049685 -17.801983679097447, 16.06229541279238 -17.568892924097174 M14.919269095147794 -18.074876768247425 C15.273703949265483 -17.91797897226591, 15.628138803383173 -17.761081176284396, 16.06229541279238 -17.568892924097174 M16.06229541279238 -17.568892924097174 C16.371524228658302 -17.407568448930434, 16.680753044524227 -17.24624397376369, 17.170554764076783 -16.990714730406097 M16.06229541279238 -17.568892924097174 C16.32821428866963 -17.43016321688118, 16.594133164546882 -17.29143350966519, 17.170554764076783 -16.990714730406097 M17.170554764076783 -16.990714730406097 C17.42646004267008 -16.835583446656496, 17.68236532126338 -16.680452162906892, 18.239493073605697 -16.342718045390892 M17.170554764076783 -16.990714730406097 C17.465912740568058 -16.811666989340953, 17.761270717059332 -16.63261924827581, 18.239493073605697 -16.342718045390892 M18.239493073605697 -16.342718045390892 C18.62992953006741 -16.07036647508499, 19.020365986529125 -15.798014904779095, 19.264717844578712 -15.627565626425154 M18.239493073605697 -16.342718045390892 C18.498222215670815 -16.16223979609031, 18.75695135773593 -15.981761546789732, 19.264717844578712 -15.627565626425154 M19.264717844578712 -15.627565626425154 C19.476380215520443 -15.458770518171368, 19.68804258646217 -15.289975409917583, 20.24201620850187 -14.848196188198123 M19.264717844578712 -15.627565626425154 C19.512799475896177 -15.42972712717894, 19.760881107213642 -15.231888627932726, 20.24201620850187 -14.848196188198123 M20.24201620850187 -14.848196188198123 C20.479788993268738 -14.632257236195997, 20.717561778035602 -14.416318284193872, 21.167372236767985 -14.007812326905688 M20.24201620850187 -14.848196188198123 C20.514782392579 -14.600477156817025, 20.787548576656132 -14.352758125435924, 21.167372236767985 -14.007812326905688 M21.167372236767985 -14.007812326905688 C21.498187954201022 -13.666217938180559, 21.829003671634062 -13.324623549455428, 22.036983442968648 -13.10986736009568 M21.167372236767985 -14.007812326905688 C21.393030982231714 -13.77480114528683, 21.618689727695443 -13.541789963667972, 22.036983442968648 -13.10986736009568 M22.036983442968648 -13.10986736009568 C22.263580523441018 -12.843693535633694, 22.490177603913388 -12.577519711171707, 22.847276408126582 -12.158051136245305 M22.036983442968648 -13.10986736009568 C22.249492499151508 -12.860242130595443, 22.462001555334368 -12.610616901095206, 22.847276408126582 -12.158051136245305 M22.847276408126582 -12.158051136245305 C23.08604681396093 -11.838120544858738, 23.32481721979528 -11.51818995347217, 23.594921464640635 -11.156274872382312 M22.847276408126582 -12.158051136245305 C23.080929581339067 -11.84497717038255, 23.314582754551555 -11.531903204519796, 23.594921464640635 -11.156274872382312 M23.594921464640635 -11.156274872382312 C23.863458759746678 -10.743729474739014, 24.131996054852717 -10.331184077095719, 24.276846378604247 -10.108655082055241 M23.594921464640635 -11.156274872382312 C23.762149287658545 -10.899368029268755, 23.929377110676455 -10.642461186155199, 24.276846378604247 -10.108655082055241 M24.276846378604247 -10.108655082055241 C24.469709336119962 -9.766207371493937, 24.662572293635677 -9.423759660932634, 24.8902489742735 -9.019496659696287 M24.276846378604247 -10.108655082055241 C24.45593551683052 -9.790664182392785, 24.635024655056792 -9.47267328273033, 24.8902489742735 -9.019496659696287 M24.8902489742735 -9.019496659696287 C25.05264227782068 -8.6822834902205, 25.21503558136786 -8.345070320744712, 25.43260864880834 -7.893275190886684 M24.8902489742735 -9.019496659696287 C25.069853739318322 -8.646543522154367, 25.249458504363144 -8.273590384612447, 25.43260864880834 -7.893275190886684 M25.43260864880834 -7.893275190886684 C25.60881499130932 -7.458042118191394, 25.785021333810295 -7.022809045496105, 25.901696729970325 -6.734618561215508 M25.43260864880834 -7.893275190886684 C25.56566505131427 -7.5646233042265, 25.698721453820202 -7.235971417566315, 25.901696729970325 -6.734618561215508 M25.901696729970325 -6.734618561215508 C26.04967760775692 -6.2889237348732685, 26.197658485543514 -5.843228908531028, 26.29558563421488 -5.548287939305138 M25.901696729970325 -6.734618561215508 C26.045443929608194 -6.301674898912227, 26.18919112924606 -5.868731236608944, 26.29558563421488 -5.548287939305138 M26.29558563421488 -5.548287939305138 C26.38659063952342 -5.201246412244881, 26.477595644831958 -4.8542048851846245, 26.61265678754556 -4.339158212148133 M26.29558563421488 -5.548287939305138 C26.40248766389258 -5.140624168511328, 26.50938969357028 -4.732960397717518, 26.61265678754556 -4.339158212148133 M26.61265678754556 -4.339158212148133 C26.707763383033445 -3.8508059451039194, 26.80286997852133 -3.3624536780597056, 26.851607276581777 -3.1121979531509023 M26.61265678754556 -4.339158212148133 C26.699740971596967 -3.8919993322929782, 26.786825155648373 -3.4448404524378233, 26.851607276581777 -3.1121979531509023 M26.851607276581777 -3.1121979531509023 C26.88506629162264 -2.8526964397238173, 26.918525306663504 -2.593194926296732, 27.011455202509367 -1.872449005199798 M26.851607276581777 -3.1121979531509023 C26.906468221574364 -2.686707297307332, 26.961329166566955 -2.261216641463762, 27.011455202509367 -1.872449005199798 M27.011455202509367 -1.872449005199798 C27.02782320701177 -1.6175041230594294, 27.044191211514175 -1.3625592409190608, 27.091543715913414 -0.6250057626472757 M27.011455202509367 -1.872449005199798 C27.03693249421356 -1.475619622007287, 27.06240978591775 -1.078790238814776, 27.091543715913414 -0.6250057626472757 M27.091543715913414 -0.6250057626472757 C27.091543715913414 -0.30018660025586363, 27.091543715913414 0.02463256213554843, 27.091543715913414 0.625005762647271 M27.091543715913414 -0.6250057626472757 C27.091543715913414 -0.22984767732543443, 27.091543715913414 0.16531040799640684, 27.091543715913414 0.625005762647271 M27.091543715913414 0.625005762647271 C27.07343875866153 0.9070050859037835, 27.055333801409652 1.189004409160296, 27.011455202509367 1.8724490051997846 M27.091543715913414 0.625005762647271 C27.062726244405685 1.073861142424506, 27.033908772897952 1.522716522201741, 27.011455202509367 1.8724490051997846 M27.011455202509367 1.8724490051997846 C26.960988422207247 2.2638593874300543, 26.910521641905127 2.6552697696603236, 26.851607276581777 3.1121979531508885 M27.011455202509367 1.8724490051997846 C26.96140810465078 2.2606044132736876, 26.91136100679219 2.648759821347591, 26.851607276581777 3.1121979531508885 M26.851607276581777 3.1121979531508885 C26.760337831936415 3.5808472616008813, 26.66906838729105 4.0494965700508745, 26.61265678754556 4.339158212148129 M26.851607276581777 3.1121979531508885 C26.799488828365227 3.379815169504937, 26.74737038014868 3.647432385858985, 26.61265678754556 4.339158212148129 M26.61265678754556 4.339158212148129 C26.49203398818133 4.799145224375883, 26.3714111888171 5.259132236603638, 26.295585634214884 5.548287939305125 M26.61265678754556 4.339158212148129 C26.52104726988525 4.688505006803, 26.429437752224942 5.037851801457871, 26.295585634214884 5.548287939305125 M26.295585634214884 5.548287939305125 C26.165711424911535 5.93944836508168, 26.035837215608183 6.330608790858235, 25.90169672997033 6.734618561215495 M26.295585634214884 5.548287939305125 C26.16460467557627 5.942781717742935, 26.033623716937655 6.337275496180746, 25.90169672997033 6.734618561215495 M25.90169672997033 6.734618561215495 C25.753786606687065 7.09995942537285, 25.6058764834038 7.465300289530205, 25.432608648808344 7.893275190886679 M25.90169672997033 6.734618561215495 C25.74032392002167 7.133212521719714, 25.578951110073014 7.531806482223933, 25.432608648808344 7.893275190886679 M25.432608648808344 7.893275190886679 C25.283089696489036 8.203754494570802, 25.133570744169727 8.514233798254926, 24.890248974273504 9.019496659696284 M25.432608648808344 7.893275190886679 C25.31607956608692 8.135250324480662, 25.1995504833655 8.377225458074644, 24.890248974273504 9.019496659696284 M24.890248974273504 9.019496659696284 C24.681927684573928 9.389392204375909, 24.47360639487435 9.759287749055533, 24.27684637860425 10.108655082055236 M24.890248974273504 9.019496659696284 C24.701277713157584 9.35503426922276, 24.512306452041667 9.690571878749235, 24.27684637860425 10.108655082055236 M24.27684637860425 10.108655082055236 C24.1200201409315 10.349582296861875, 23.963193903258748 10.590509511668516, 23.59492146464064 11.156274872382301 M24.27684637860425 10.108655082055236 C24.02360032459744 10.497709027096949, 23.770354270590627 10.886762972138662, 23.59492146464064 11.156274872382301 M23.59492146464064 11.156274872382301 C23.40984311854613 11.404262995164755, 23.224764772451618 11.652251117947207, 22.847276408126582 12.158051136245302 M23.59492146464064 11.156274872382301 C23.415606244323843 11.39654093165418, 23.236291024007045 11.636806990926058, 22.847276408126582 12.158051136245302 M22.847276408126582 12.158051136245302 C22.59503515826099 12.454348061271142, 22.3427939083954 12.750644986296985, 22.03698344296866 13.10986736009567 M22.847276408126582 12.158051136245302 C22.66660569960681 12.370277230927174, 22.485934991087035 12.582503325609048, 22.03698344296866 13.10986736009567 M22.03698344296866 13.10986736009567 C21.75491895873714 13.401122097989546, 21.472854474505624 13.692376835883422, 21.16737223676799 14.007812326905684 M22.03698344296866 13.10986736009567 C21.784166393876546 13.370921719949028, 21.531349344784438 13.631976079802383, 21.16737223676799 14.007812326905684 M21.16737223676799 14.007812326905684 C20.944714517738678 14.210024176127686, 20.72205679870937 14.412236025349689, 20.242016208501887 14.848196188198111 M21.16737223676799 14.007812326905684 C20.820543443282332 14.322793060562343, 20.47371464979668 14.637773794219003, 20.242016208501887 14.848196188198111 M20.242016208501887 14.848196188198111 C19.880505064800563 15.13649170508436, 19.518993921099238 15.42478722197061, 19.264717844578715 15.627565626425152 M20.242016208501887 14.848196188198111 C20.030675120897907 15.01673508153975, 19.819334033293927 15.185273974881389, 19.264717844578715 15.627565626425152 M19.264717844578715 15.627565626425152 C19.015567663704438 15.801362007065551, 18.76641748283016 15.97515838770595, 18.239493073605708 16.34271804539089 M19.264717844578715 15.627565626425152 C19.043632362692776 15.781785287952525, 18.822546880806833 15.9360049494799, 18.239493073605708 16.34271804539089 M18.239493073605708 16.34271804539089 C17.960634477913704 16.51176376485439, 17.681775882221704 16.680809484317887, 17.170554764076787 16.990714730406093 M18.239493073605708 16.34271804539089 C17.893215171675603 16.552633744495747, 17.5469372697455 16.7625494436006, 17.170554764076787 16.990714730406093 M17.170554764076787 16.990714730406093 C16.856027526750065 17.154803388655132, 16.541500289423347 17.31889204690417, 16.062295412792388 17.56889292409717 M17.170554764076787 16.990714730406093 C16.862091073809836 17.15164004003794, 16.553627383542885 17.312565349669782, 16.062295412792388 17.56889292409717 M16.062295412792388 17.56889292409717 C15.810052920966015 17.68055319272104, 15.557810429139643 17.792213461344907, 14.919269095147804 18.07487676824742 M16.062295412792388 17.56889292409717 C15.739253628900734 17.71189393913196, 15.416211845009078 17.85489495416675, 14.919269095147804 18.07487676824742 M14.919269095147804 18.07487676824742 C14.663695355208382 18.16893026704288, 14.40812161526896 18.262983765838342, 13.746172751460616 18.506587066708033 M14.919269095147804 18.07487676824742 C14.541908409759392 18.213748988754293, 14.164547724370978 18.352621209261166, 13.746172751460616 18.506587066708033 M13.746172751460616 18.506587066708033 C13.288679645367226 18.642368619166234, 12.831186539273837 18.778150171624436, 12.547826886235413 18.86224982926107 M13.746172751460616 18.506587066708033 C13.442592186880088 18.596688184748633, 13.13901162229956 18.686789302789233, 12.547826886235413 18.86224982926107 M12.547826886235413 18.86224982926107 C12.22131657341488 18.936773677483444, 11.894806260594347 19.011297525705817, 11.329155759676766 19.140403561325773 M12.547826886235413 18.86224982926107 C12.135569598916964 18.95634486486129, 11.723312311598516 19.050439900461512, 11.329155759676766 19.140403561325773 M11.329155759676766 19.140403561325773 C10.98146671999362 19.19661522889297, 10.633777680310473 19.25282689646017, 10.095167152847878 19.3399052695533 M11.329155759676766 19.140403561325773 C11.082062845319493 19.180351627484885, 10.83496993096222 19.220299693644, 10.095167152847878 19.3399052695533 M10.095167152847878 19.3399052695533 C9.757937070328024 19.372437450035477, 9.420706987808172 19.404969630517655, 8.8509317896239 19.45993515863156 M10.095167152847878 19.3399052695533 C9.740341548057899 19.374134868907163, 9.38551594326792 19.40836446826103, 8.8509317896239 19.45993515863156 M8.8509317896239 19.45993515863156 C8.408291313791835 19.474129777144075, 7.96565083795977 19.48832439565659, 7.6015625000000036 19.5 M8.8509317896239 19.45993515863156 C8.387289669491967 19.47480325899955, 7.923647549360034 19.48967135936754, 7.6015625000000036 19.5 M7.6015625000000036 19.5 C7.601562500000003 19.5, 7.601562500000002 19.5, 7.6015625 19.5 M7.6015625000000036 19.5 C7.601562500000003 19.5, 7.601562500000002 19.5, 7.6015625 19.5 M7.6015625 19.5 C2.577146812626891 19.5, -2.447268874746218 19.5, -7.6015624999999964 19.5 M7.6015625 19.5 C2.028641691900236 19.5, -3.5442791161995277 19.5, -7.6015624999999964 19.5 M-7.6015624999999964 19.5 C-8.082481773778275 19.48457785494251, -8.563401047556553 19.469155709885023, -8.850931789623893 19.45993515863156 M-7.6015624999999964 19.5 C-8.027957692395201 19.48632633610778, -8.454352884790406 19.47265267221556, -8.850931789623893 19.45993515863156 M-8.850931789623893 19.45993515863156 C-9.254235004338577 19.421028982551114, -9.657538219053261 19.38212280647067, -10.095167152847871 19.3399052695533 M-8.850931789623893 19.45993515863156 C-9.142151253723444 19.431841567172523, -9.433370717822996 19.403747975713486, -10.095167152847871 19.3399052695533 M-10.095167152847871 19.3399052695533 C-10.563385997612766 19.264207277823083, -11.03160484237766 19.188509286092863, -11.329155759676759 19.140403561325773 M-10.095167152847871 19.3399052695533 C-10.368307873814473 19.295745996025346, -10.641448594781076 19.251586722497393, -11.329155759676759 19.140403561325773 M-11.329155759676759 19.140403561325773 C-11.790102176310675 19.035195549685557, -12.251048592944592 18.929987538045346, -12.547826886235388 18.862249829261074 M-11.329155759676759 19.140403561325773 C-11.651260128134451 19.066885341152744, -11.973364496592145 18.993367120979716, -12.547826886235388 18.862249829261074 M-12.547826886235388 18.862249829261074 C-12.815345361554998 18.782851750019347, -13.082863836874608 18.70345367077762, -13.746172751460593 18.506587066708043 M-12.547826886235388 18.862249829261074 C-12.995927036883952 18.72925605667427, -13.444027187532518 18.596262284087466, -13.746172751460593 18.506587066708043 M-13.746172751460593 18.506587066708043 C-14.215047295756795 18.334036900178265, -14.683921840052998 18.161486733648488, -14.919269095147797 18.074876768247425 M-13.746172751460593 18.506587066708043 C-14.044907415184426 18.396649948984713, -14.343642078908257 18.286712831261383, -14.919269095147797 18.074876768247425 M-14.919269095147797 18.074876768247425 C-15.287148099211334 17.91202764589142, -15.655027103274872 17.74917852353542, -16.06229541279238 17.568892924097174 M-14.919269095147797 18.074876768247425 C-15.286155685790108 17.9124669578741, -15.653042276432421 17.750057147500776, -16.06229541279238 17.568892924097174 M-16.06229541279238 17.568892924097174 C-16.483379785221516 17.349213476718308, -16.904464157650647 17.129534029339442, -17.17055476407678 16.990714730406097 M-16.06229541279238 17.568892924097174 C-16.416717705430145 17.383991041046365, -16.77113999806791 17.19908915799556, -17.17055476407678 16.990714730406097 M-17.17055476407678 16.990714730406097 C-17.519412699154756 16.77923500004504, -17.868270634232733 16.567755269683985, -18.239493073605686 16.3427180453909 M-17.17055476407678 16.990714730406097 C-17.432793795526834 16.831743888453467, -17.695032826976888 16.672773046500836, -18.239493073605686 16.3427180453909 M-18.239493073605686 16.3427180453909 C-18.558291797808412 16.120337855961424, -18.877090522011137 15.89795766653195, -19.264717844578712 15.627565626425156 M-18.239493073605686 16.3427180453909 C-18.581206021074482 16.104353885751753, -18.92291896854328 15.865989726112602, -19.264717844578712 15.627565626425156 M-19.264717844578712 15.627565626425156 C-19.614108176967985 15.348936134011934, -19.963498509357255 15.07030664159871, -20.24201620850187 14.848196188198125 M-19.264717844578712 15.627565626425156 C-19.590455000301723 15.367798912965812, -19.91619215602473 15.108032199506466, -20.24201620850187 14.848196188198125 M-20.24201620850187 14.848196188198125 C-20.57764267126823 14.543389114903302, -20.91326913403459 14.238582041608478, -21.167372236767974 14.007812326905697 M-20.24201620850187 14.848196188198125 C-20.569537889187764 14.550749663547998, -20.897059569873658 14.253303138897872, -21.167372236767974 14.007812326905697 M-21.167372236767974 14.007812326905697 C-21.388485325515514 13.779494909051662, -21.609598414263058 13.551177491197627, -22.036983442968655 13.109867360095677 M-21.167372236767974 14.007812326905697 C-21.366683419274917 13.802007167214871, -21.56599460178186 13.596202007524047, -22.036983442968655 13.109867360095677 M-22.036983442968655 13.109867360095677 C-22.302784303033025 12.79764254536667, -22.568585163097396 12.485417730637664, -22.84727640812658 12.158051136245307 M-22.036983442968655 13.109867360095677 C-22.331383885869556 12.764047848004516, -22.625784328770457 12.418228335913355, -22.84727640812658 12.158051136245307 M-22.84727640812658 12.158051136245307 C-23.079069598409863 11.847469378059756, -23.310862788693143 11.536887619874207, -23.594921464640635 11.156274872382316 M-22.84727640812658 12.158051136245307 C-23.114275459420597 11.800296731625293, -23.38127451071461 11.442542327005278, -23.594921464640635 11.156274872382316 M-23.594921464640635 11.156274872382316 C-23.860324400153395 10.748544692767695, -24.125727335666156 10.340814513153074, -24.276846378604244 10.108655082055249 M-23.594921464640635 11.156274872382316 C-23.77931534979951 10.872996348087128, -23.963709234958383 10.589717823791942, -24.276846378604244 10.108655082055249 M-24.276846378604244 10.108655082055249 C-24.50752567297389 9.69906063609044, -24.738204967343542 9.289466190125632, -24.8902489742735 9.019496659696289 M-24.276846378604244 10.108655082055249 C-24.49430483413356 9.722535574206555, -24.711763289662873 9.33641606635786, -24.8902489742735 9.019496659696289 M-24.8902489742735 9.019496659696289 C-25.07181437757828 8.64247221485663, -25.25337978088306 8.26544777001697, -25.43260864880834 7.893275190886686 M-24.8902489742735 9.019496659696289 C-25.051720677442738 8.684197213124394, -25.21319238061197 8.348897766552497, -25.43260864880834 7.893275190886686 M-25.43260864880834 7.893275190886686 C-25.557143991228244 7.585670487382477, -25.681679333648148 7.278065783878268, -25.901696729970325 6.73461856121551 M-25.43260864880834 7.893275190886686 C-25.598978942511117 7.482337348890018, -25.765349236213897 7.07139950689335, -25.901696729970325 6.73461856121551 M-25.901696729970325 6.73461856121551 C-26.024865379474292 6.363654213168835, -26.148034028978255 5.99268986512216, -26.29558563421488 5.5482879393051325 M-25.901696729970325 6.73461856121551 C-26.051594490406885 6.283150389745344, -26.201492250843444 5.831682218275178, -26.29558563421488 5.5482879393051325 M-26.29558563421488 5.5482879393051325 C-26.3791775114613 5.229515882415766, -26.462769388707716 4.910743825526399, -26.612656787545557 4.339158212148136 M-26.29558563421488 5.5482879393051325 C-26.40007221540273 5.149835320465112, -26.504558796590583 4.751382701625091, -26.612656787545557 4.339158212148136 M-26.612656787545557 4.339158212148136 C-26.70490763500918 3.8654696076459496, -26.797158482472806 3.3917810031437634, -26.851607276581777 3.112197953150904 M-26.612656787545557 4.339158212148136 C-26.66276710370021 4.081852329513049, -26.71287741985487 3.8245464468779633, -26.851607276581777 3.112197953150904 M-26.851607276581777 3.112197953150904 C-26.91553208948945 2.616409727621095, -26.979456902397125 2.1206215020912857, -27.011455202509364 1.872449005199809 M-26.851607276581777 3.112197953150904 C-26.885317826400556 2.8507455856574717, -26.919028376219334 2.5892932181640393, -27.011455202509364 1.872449005199809 M-27.011455202509364 1.872449005199809 C-27.03842970282558 1.4522993893499399, -27.065404203141803 1.0321497735000704, -27.091543715913414 0.6250057626472781 M-27.011455202509364 1.872449005199809 C-27.034351009877362 1.5158283242801835, -27.057246817245357 1.1592076433605583, -27.091543715913414 0.6250057626472781 M-27.091543715913414 0.6250057626472781 C-27.091543715913414 0.25652379371510486, -27.091543715913414 -0.11195817521706841, -27.091543715913414 -0.6250057626472687 M-27.091543715913414 0.6250057626472781 C-27.091543715913414 0.2324910066079301, -27.091543715913414 -0.16002374943141795, -27.091543715913414 -0.6250057626472687 M-27.091543715913414 -0.6250057626472687 C-27.064237944640404 -1.05031519104625, -27.036932173367397 -1.4756246194452314, -27.011455202509367 -1.8724490051997822 M-27.091543715913414 -0.6250057626472687 C-27.068598377762868 -0.9823979254856345, -27.045653039612322 -1.3397900883240004, -27.011455202509367 -1.8724490051997822 M-27.011455202509367 -1.8724490051997822 C-26.953114689309206 -2.3249265049428165, -26.89477417610905 -2.7774040046858506, -26.851607276581777 -3.112197953150895 M-27.011455202509367 -1.8724490051997822 C-26.949945242085626 -2.3495081117307657, -26.888435281661888 -2.826567218261749, -26.851607276581777 -3.112197953150895 M-26.851607276581777 -3.112197953150895 C-26.780187514312825 -3.478923337829862, -26.708767752043872 -3.845648722508828, -26.61265678754556 -4.339158212148126 M-26.851607276581777 -3.112197953150895 C-26.75953965335396 -3.5849457399266798, -26.66747203012614 -4.057693526702464, -26.61265678754556 -4.339158212148126 M-26.61265678754556 -4.339158212148126 C-26.50519960563038 -4.748939019027946, -26.397742423715204 -5.158719825907768, -26.295585634214884 -5.548287939305123 M-26.61265678754556 -4.339158212148126 C-26.52037359606767 -4.6910740170415055, -26.42809040458978 -5.042989821934886, -26.295585634214884 -5.548287939305123 M-26.295585634214884 -5.548287939305123 C-26.183776006077753 -5.885040724809163, -26.071966377940626 -6.221793510313204, -25.901696729970332 -6.734618561215485 M-26.295585634214884 -5.548287939305123 C-26.140214993958896 -6.01623955280643, -25.984844353702904 -6.484191166307736, -25.901696729970332 -6.734618561215485 M-25.901696729970332 -6.734618561215485 C-25.78780612540212 -7.015930556424011, -25.673915520833912 -7.297242551632536, -25.432608648808344 -7.893275190886676 M-25.901696729970332 -6.734618561215485 C-25.75547728366809 -7.095783420542705, -25.609257837365845 -7.456948279869925, -25.432608648808344 -7.893275190886676 M-25.432608648808344 -7.893275190886676 C-25.279125880169023 -8.21198544397139, -25.1256431115297 -8.530695697056103, -24.890248974273504 -9.019496659696282 M-25.432608648808344 -7.893275190886676 C-25.25812330042184 -8.255597750199634, -25.083637952035332 -8.617920309512591, -24.890248974273504 -9.019496659696282 M-24.890248974273504 -9.019496659696282 C-24.658496710510725 -9.430996271468526, -24.426744446747946 -9.842495883240773, -24.276846378604247 -10.108655082055243 M-24.890248974273504 -9.019496659696282 C-24.7263288339734 -9.310553467513223, -24.562408693673298 -9.601610275330165, -24.276846378604247 -10.108655082055243 M-24.276846378604247 -10.108655082055243 C-24.067111859955837 -10.430863624303228, -23.857377341307426 -10.753072166551211, -23.59492146464064 -11.156274872382308 M-24.276846378604247 -10.108655082055243 C-24.055565089076364 -10.448602565116227, -23.834283799548476 -10.78855004817721, -23.59492146464064 -11.156274872382308 M-23.59492146464064 -11.156274872382308 C-23.3085869867621 -11.539936987131986, -23.02225250888356 -11.923599101881665, -22.847276408126586 -12.158051136245302 M-23.59492146464064 -11.156274872382308 C-23.443349724678757 -11.359367195461655, -23.291777984716873 -11.562459518541003, -22.847276408126586 -12.158051136245302 M-22.847276408126586 -12.158051136245302 C-22.600522069058847 -12.447902823633914, -22.353767729991112 -12.737754511022528, -22.036983442968662 -13.10986736009567 M-22.847276408126586 -12.158051136245302 C-22.61676181786424 -12.428826690619218, -22.386247227601892 -12.699602244993136, -22.036983442968662 -13.10986736009567 M-22.036983442968662 -13.10986736009567 C-21.70759094125846 -13.449992161738788, -21.378198439548253 -13.790116963381905, -21.167372236767996 -14.007812326905677 M-22.036983442968662 -13.10986736009567 C-21.851005087029083 -13.301905281710274, -21.665026731089505 -13.493943203324877, -21.167372236767996 -14.007812326905677 M-21.167372236767996 -14.007812326905677 C-20.93088190550476 -14.222586588567669, -20.694391574241518 -14.437360850229659, -20.242016208501887 -14.848196188198107 M-21.167372236767996 -14.007812326905677 C-20.90544414519358 -14.245688489436022, -20.64351605361917 -14.483564651966367, -20.242016208501887 -14.848196188198107 M-20.242016208501887 -14.848196188198107 C-19.875394924965775 -15.140566905616067, -19.508773641429666 -15.432937623034027, -19.26471784457872 -15.627565626425149 M-20.242016208501887 -14.848196188198107 C-19.93358265766831 -15.094163737226395, -19.62514910683473 -15.340131286254683, -19.26471784457872 -15.627565626425149 M-19.26471784457872 -15.627565626425149 C-18.855898244201533 -15.912740482133007, -18.447078643824348 -16.197915337840865, -18.23949307360571 -16.342718045390885 M-19.26471784457872 -15.627565626425149 C-19.03463185539207 -15.788063652219815, -18.80454586620542 -15.948561678014482, -18.23949307360571 -16.342718045390885 M-18.23949307360571 -16.342718045390885 C-17.96543421011761 -16.50885413898602, -17.691375346629513 -16.674990232581155, -17.17055476407679 -16.99071473040609 M-18.23949307360571 -16.342718045390885 C-17.881926829897754 -16.559476803619138, -17.5243605861898 -16.776235561847386, -17.17055476407679 -16.99071473040609 M-17.17055476407679 -16.99071473040609 C-16.833226775992134 -17.166698525720967, -16.495898787907475 -17.342682321035845, -16.062295412792388 -17.56889292409717 M-17.17055476407679 -16.99071473040609 C-16.854161460628916 -17.155776914155265, -16.537768157181038 -17.32083909790444, -16.062295412792388 -17.56889292409717 M-16.062295412792388 -17.56889292409717 C-15.629580454055457 -17.760443000296824, -15.196865495318526 -17.95199307649648, -14.919269095147806 -18.07487676824742 M-16.062295412792388 -17.56889292409717 C-15.809797274032402 -17.680666360035055, -15.557299135272416 -17.792439795972935, -14.919269095147806 -18.07487676824742 M-14.919269095147806 -18.07487676824742 C-14.45357420605032 -18.24625679227166, -13.987879316952833 -18.4176368162959, -13.746172751460618 -18.506587066708033 M-14.919269095147806 -18.07487676824742 C-14.492988235380702 -18.231752065138785, -14.066707375613598 -18.38862736203015, -13.746172751460618 -18.506587066708033 M-13.746172751460618 -18.506587066708033 C-13.268932853568195 -18.64822936331916, -12.791692955675773 -18.789871659930288, -12.547826886235413 -18.862249829261067 M-13.746172751460618 -18.506587066708033 C-13.499914634307553 -18.57967518324383, -13.253656517154488 -18.65276329977962, -12.547826886235413 -18.862249829261067 M-12.547826886235413 -18.862249829261067 C-12.123966404434269 -18.958993218284043, -11.700105922633124 -19.055736607307022, -11.329155759676768 -19.140403561325773 M-12.547826886235413 -18.862249829261067 C-12.199009693608282 -18.941865077233302, -11.850192500981152 -19.021480325205538, -11.329155759676768 -19.140403561325773 M-11.329155759676768 -19.140403561325773 C-11.056349120069038 -19.184508823170464, -10.78354248046131 -19.228614085015153, -10.09516715284788 -19.3399052695533 M-11.329155759676768 -19.140403561325773 C-10.84753357303405 -19.218268501426326, -10.365911386391335 -19.296133441526884, -10.09516715284788 -19.3399052695533 M-10.09516715284788 -19.3399052695533 C-9.658048585560815 -19.38207357202749, -9.220930018273751 -19.424241874501682, -8.850931789623903 -19.45993515863156 M-10.09516715284788 -19.3399052695533 C-9.748836117728029 -19.373315407987302, -9.402505082608178 -19.406725546421303, -8.850931789623903 -19.45993515863156 M-8.850931789623903 -19.45993515863156 C-8.554428821138767 -19.469443431722862, -8.257925852653631 -19.47895170481416, -7.601562500000006 -19.5 M-8.850931789623903 -19.45993515863156 C-8.563648472180647 -19.46914777545891, -8.276365154737391 -19.47836039228626, -7.601562500000006 -19.5 M-7.601562500000006 -19.5 C-7.6015625000000036 -19.5, -7.601562500000001 -19.5, -7.6015625 -19.5 M-7.601562500000006 -19.5 C-7.601562500000004 -19.5, -7.601562500000003 -19.5, -7.6015625 -19.5" stroke="#9370DB" stroke-width="1.3" fill="none" stroke-dasharray="0 0" style=""/></g><g class="label" style="" transform="translate(-14.7265625, -12)"><rect/><foreignObject width="29.453125" height="24"><div xmlns="http://www.w3.org/1999/xhtml" style="display: table-cell; white-space: nowrap; line-height: 1.5; max-width: 200px; text-align: center;"><span class="nodeLabel"><p>시작</p></span></div></foreignObject></g></g><g class="node default" id="my-svg-flowchart-MAIN001-1" data-look="classic" transform="translate(299.44140625, 124)"><rect class="basic label-container" style="" x="-115.6953125" y="-27" width="231.390625" height="54"/><g class="label" style="" transform="translate(-85.6953125, -12)"><rect/><foreignObject width="171.390625" height="24"><div xmlns="http://www.w3.org/1999/xhtml" style="display: table-cell; white-space: nowrap; line-height: 1.5; max-width: 200px; text-align: center;"><span class="nodeLabel"><p>MAIN-001 메인페이지(홈)</p></span></div></foreignObject></g></g><g class="node default" id="my-svg-flowchart-CATEGORY001-3" data-look="classic" transform="translate(236.94140625, 368)"><rect class="basic label-container" style="" x="-130" y="-39" width="260" height="78"/><g class="label" style="" transform="translate(-100, -24)"><rect/><foreignObject width="200" height="48"><div xmlns="http://www.w3.org/1999/xhtml" style="display: table; white-space: break-spaces; line-height: 1.5; max-width: 200px; text-align: center; width: 200px;"><span class="nodeLabel"><p>CATEGORY-001 카테고리 페이지</p></span></div></foreignObject></g></g><g class="node default" id="my-svg-flowchart-BRAND001-4" data-look="classic" transform="translate(138, 240)"><rect class="basic label-container" style="" x="-130" y="-39" width="260" height="78"/><g class="label" style="" transform="translate(-100, -24)"><rect/><foreignObject width="200" height="48"><div xmlns="http://www.w3.org/1999/xhtml" style="display: table; white-space: break-spaces; line-height: 1.5; max-width: 200px; text-align: center; width: 200px;"><span class="nodeLabel"><p>BRAND-001 브랜드 소개 페이지</p></span></div></foreignObject></g></g><g class="node default" id="my-svg-flowchart-TASK001-5" data-look="classic" transform="translate(236.94140625, 484)"><rect class="basic label-container" style="" x="-78.453125" y="-27" width="156.90625" height="54"/><g class="label" style="" transform="translate(-48.453125, -12)"><rect/><foreignObject width="96.90625" height="24"><div xmlns="http://www.w3.org/1999/xhtml" style="display: table-cell; white-space: nowrap; line-height: 1.5; max-width: 200px; text-align: center;"><span class="nodeLabel"><p>TASK-001 FAQ</p></span></div></foreignObject></g></g><g class="node default" id="my-svg-flowchart-TASK002-6" data-look="classic" transform="translate(454.82421875, 588)"><rect class="basic label-container" style="" x="-96.828125" y="-27" width="193.65625" height="54"/><g class="label" style="" transform="translate(-66.828125, -12)"><rect/><foreignObject width="133.65625" height="24"><div xmlns="http://www.w3.org/1999/xhtml" style="display: table-cell; white-space: nowrap; line-height: 1.5; max-width: 200px; text-align: center;"><span class="nodeLabel"><p>TASK-002 문의 처리</p></span></div></foreignObject></g></g></g></g></g><defs><filter id="my-svg-drop-shadow" height="130%" width="130%"><feDropShadow dx="4" dy="4" stdDeviation="0" flood-opacity="0.06" flood-color="#000000"/></filter></defs><defs><filter id="my-svg-drop-shadow-small" height="150%" width="150%"><feDropShadow dx="2" dy="2" stdDeviation="0" flood-opacity="0.06" flood-color="#000000"/></filter></defs></svg>