<svg id="my-svg" width="100%" xmlns="http://www.w3.org/2000/svg" xmlns:xlink="http://www.w3.org/1999/xlink" class="flowchart" style="max-width: 661.328px; background-color: transparent;" viewBox="-35 0 661.328125 623" role="graphics-document document" aria-roledescription="flowchart-v2"><style>#my-svg{font-family:"trebuchet ms",verdana,arial,sans-serif;font-size:16px;fill:#333;}@keyframes edge-animation-frame{from{stroke-dashoffset:0;}}@keyframes dash{to{stroke-dashoffset:0;}}#my-svg .edge-animation-slow{stroke-dasharray:9,5!important;stroke-dashoffset:900;animation:dash 50s linear infinite;stroke-linecap:round;}#my-svg .edge-animation-fast{stroke-dasharray:9,5!important;stroke-dashoffset:900;animation:dash 20s linear infinite;stroke-linecap:round;}#my-svg .error-icon{fill:#552222;}#my-svg .error-text{fill:#552222;stroke:#552222;}#my-svg .edge-thickness-normal{stroke-width:1px;}#my-svg .edge-thickness-thick{stroke-width:3.5px;}#my-svg .edge-pattern-solid{stroke-dasharray:0;}#my-svg .edge-thickness-invisible{stroke-width:0;fill:none;}#my-svg .edge-pattern-dashed{stroke-dasharray:3;}#my-svg .edge-pattern-dotted{stroke-dasharray:2;}#my-svg .marker{fill:#333333;stroke:#333333;}#my-svg .marker.cross{stroke:#333333;}#my-svg svg{font-family:"trebuchet ms",verdana,arial,sans-serif;font-size:16px;}#my-svg p{margin:0;}#my-svg .label{font-family:"trebuchet ms",verdana,arial,sans-serif;color:#333;}#my-svg .cluster-label text{fill:#333;}#my-svg .cluster-label span{color:#333;}#my-svg .cluster-label span p{background-color:transparent;}#my-svg .label text,#my-svg span{fill:#333;color:#333;}#my-svg .node rect,#my-svg .node circle,#my-svg .node ellipse,#my-svg .node polygon,#my-svg .node path{fill:#ECECFF;stroke:#9370DB;stroke-width:1px;}#my-svg .rough-node .label text,#my-svg .node .label text,#my-svg .image-shape .label,#my-svg .icon-shape .label{text-anchor:middle;}#my-svg .node .katex path{fill:#000;stroke:#000;stroke-width:1px;}#my-svg .rough-node .label,#my-svg .node .label,#my-svg .image-shape .label,#my-svg .icon-shape .label{text-align:center;}#my-svg .node.clickable{cursor:pointer;}#my-svg .root .anchor path{fill:#333333!important;stroke-width:0;stroke:#333333;}#my-svg .arrowheadPath{fill:#333333;}#my-svg .edgePath .path{stroke:#333333;stroke-width:1px;}#my-svg .flowchart-link{stroke:#333333;fill:none;}#my-svg .edgeLabel{background-color:rgba(232,232,232, 0.8);text-align:center;}#my-svg .edgeLabel p{background-color:rgba(232,232,232, 0.8);}#my-svg .edgeLabel rect{opacity:0.5;background-color:rgba(232,232,232, 0.8);fill:rgba(232,232,232, 0.8);}#my-svg .labelBkg{background-color:rgba(232, 232, 232, 0.5);}#my-svg .cluster rect{fill:#ffffde;stroke:#aaaa33;stroke-width:1px;}#my-svg .cluster text{fill:#333;}#my-svg .cluster span{color:#333;}#my-svg div.mermaidTooltip{position:absolute;text-align:center;max-width:200px;padding:2px;font-family:"trebuchet ms",verdana,arial,sans-serif;font-size:12px;background:hsl(80, 100%, 96.2745098039%);border:1px solid #aaaa33;border-radius:2px;pointer-events:none;z-index:100;}#my-svg .flowchartTitleText{text-anchor:middle;font-size:18px;fill:#333;}#my-svg rect.text{fill:none;stroke-width:0;}#my-svg .icon-shape,#my-svg .image-shape{background-color:rgba(232,232,232, 0.8);text-align:center;}#my-svg .icon-shape p,#my-svg .image-shape p{background-color:rgba(232,232,232, 0.8);padding:2px;}#my-svg .icon-shape .label rect,#my-svg .image-shape .label rect{opacity:0.5;background-color:rgba(232,232,232, 0.8);fill:rgba(232,232,232, 0.8);}#my-svg .label-icon{display:inline-block;height:1em;overflow:visible;vertical-align:-0.125em;}#my-svg .node .label-icon path{fill:currentColor;stroke:revert;stroke-width:revert;}#my-svg .node .neo-node{stroke:#9370DB;}#my-svg [data-look="neo"].node rect,#my-svg [data-look="neo"].cluster rect,#my-svg [data-look="neo"].node polygon{stroke:#9370DB;filter:drop-shadow(1px 2px 2px rgba(185, 185, 185, 1));}#my-svg [data-look="neo"].swimlane.cluster rect{filter:none;}#my-svg [data-look="neo"].node path{stroke:#9370DB;stroke-width:1px;}#my-svg [data-look="neo"].node .outer-path{filter:drop-shadow(1px 2px 2px rgba(185, 185, 185, 1));}#my-svg [data-look="neo"].node .neo-line path{stroke:#9370DB;filter:none;}#my-svg [data-look="neo"].node circle{stroke:#9370DB;filter:drop-shadow(1px 2px 2px rgba(185, 185, 185, 1));}#my-svg [data-look="neo"].node circle .state-start{fill:#000000;}#my-svg [data-look="neo"].icon-shape .icon{fill:#9370DB;filter:drop-shadow(1px 2px 2px rgba(185, 185, 185, 1));}#my-svg [data-look="neo"].icon-shape .icon-neo path{stroke:#9370DB;filter:drop-shadow(1px 2px 2px rgba(185, 185, 185, 1));}#my-svg :root{--mermaid-font-family:"trebuchet ms",verdana,arial,sans-serif;}</style><g><marker id="my-svg_flowchart-v2-pointEnd" class="marker flowchart-v2" viewBox="0 0 10 10" refX="5" refY="5" markerUnits="userSpaceOnUse" markerWidth="8" markerHeight="8" orient="auto"><path d="M 0 0 L 10 5 L 0 10 z" class="arrowMarkerPath" style="stroke-width: 1; stroke-dasharray: 1, 0;"/></marker><marker id="my-svg_flowchart-v2-pointStart" class="marker flowchart-v2" viewBox="0 0 10 10" refX="4.5" refY="5" markerUnits="userSpaceOnUse" markerWidth="8" markerHeight="8" orient="auto"><path d="M 0 5 L 10 10 L 10 0 z" class="arrowMarkerPath" style="stroke-width: 1; stroke-dasharray: 1, 0;"/></marker><marker id="my-svg_flowchart-v2-pointEnd-margin" class="marker flowchart-v2" viewBox="0 0 11.5 14" refX="11.5" refY="7" markerUnits="userSpaceOnUse" markerWidth="10.5" markerHeight="14" orient="auto"><path d="M 0 0 L 11.5 7 L 0 14 z" class="arrowMarkerPath" style="stroke-width: 0; stroke-dasharray: 1, 0;"/></marker><marker id="my-svg_flowchart-v2-pointStart-margin" class="marker flowchart-v2" viewBox="0 0 11.5 14" refX="1" refY="7" markerUnits="userSpaceOnUse" markerWidth="11.5" markerHeight="14" orient="auto"><polygon points="0,7 11.5,14 11.5,0" class="arrowMarkerPath" style="stroke-width: 0; stroke-dasharray: 1, 0;"/></marker><marker id="my-svg_flowchart-v2-circleEnd" class="marker flowchart-v2" viewBox="0 0 10 10" refX="11" refY="5" markerUnits="userSpaceOnUse" markerWidth="11" markerHeight="11" orient="auto"><circle cx="5" cy="5" r="5" class="arrowMarkerPath" style="stroke-width: 1; stroke-dasharray: 1, 0;"/></marker><marker id="my-svg_flowchart-v2-circleStart" class="marker flowchart-v2" viewBox="0 0 10 10" refX="-1" refY="5" markerUnits="userSpaceOnUse" markerWidth="11" markerHeight="11" orient="auto"><circle cx="5" cy="5" r="5" class="arrowMarkerPath" style="stroke-width: 1; stroke-dasharray: 1, 0;"/></marker><marker id="my-svg_flowchart-v2-circleEnd-margin" class="marker flowchart-v2" viewBox="0 0 10 10" refY="5" refX="12.25" markerUnits="userSpaceOnUse" markerWidth="14" markerHeight="14" orient="auto"><circle cx="5" cy="5" r="5" class="arrowMarkerPath" style="stroke-width: 0; stroke-dasharray: 1, 0;"/></marker><marker id="my-svg_flowchart-v2-circleStart-margin" class="marker flowchart-v2" viewBox="0 0 10 10" refX="-2" refY="5" markerUnits="userSpaceOnUse" markerWidth="14" markerHeight="14" orient="auto"><circle cx="5" cy="5" r="5" class="arrowMarkerPath" style="stroke-width: 0; stroke-dasharray: 1, 0;"/></marker><marker id="my-svg_flowchart-v2-crossEnd" class="marker cross flowchart-v2" viewBox="0 0 11 11" refX="12" refY="5.2" markerUnits="userSpaceOnUse" markerWidth="11" markerHeight="11" orient="auto"><path d="M 1,1 l 9,9 M 10,1 l -9,9" class="arrowMarkerPath" style="stroke-width: 2; stroke-dasharray: 1, 0;"/></marker><marker id="my-svg_flowchart-v2-crossStart" class="marker cross flowchart-v2" viewBox="0 0 11 11" refX="-1" refY="5.2" markerUnits="userSpaceOnUse" markerWidth="11" markerHeight="11" orient="auto"><path d="M 1,1 l 9,9 M 10,1 l -9,9" class="arrowMarkerPath" style="stroke-width: 2; stroke-dasharray: 1, 0;"/></marker><marker id="my-svg_flowchart-v2-crossEnd-margin" class="marker cross flowchart-v2" viewBox="0 0 15 15" refX="17.7" refY="7.5" markerUnits="userSpaceOnUse" markerWidth="12" markerHeight="12" orient="auto"><path d="M 1,1 L 14,14 M 1,14 L 14,1" class="arrowMarkerPath" style="stroke-width: 2.5;"/></marker><marker id="my-svg_flowchart-v2-crossStart-margin" class="marker cross flowchart-v2" viewBox="0 0 15 15" refX="-3.5" refY="7.5" markerUnits="userSpaceOnUse" markerWidth="12" markerHeight="12" orient="auto"><path d="M 1,1 L 14,14 M 1,14 L 14,1" class="arrowMarkerPath" style="stroke-width: 2.5; stroke-dasharray: 1, 0;"/></marker><g class="root"><g class="clusters"/><g class="edgePaths"><path d="M316.281,47.5L316.198,51.583C316.115,55.667,315.948,63.833,315.865,71.417C315.781,79,315.781,86,315.781,89.5L315.781,93" id="my-svg-L_START_MAIN001_0" class="edge-thickness-normal edge-pattern-solid edge-thickness-normal edge-pattern-solid flowchart-link" style=";" data-edge="true" data-et="edge" data-id="L_START_MAIN001_0" data-points="W3sieCI6MzE2LjI4MTI1LCJ5Ijo0Ny41fSx7IngiOjMxNS43ODEyNSwieSI6NzJ9LHsieCI6MzE1Ljc4MTI1LCJ5Ijo5N31d" data-look="classic" marker-end="url(#my-svg_flowchart-v2-pointEnd)"/><path d="M200.086,141.551L162.238,147.293C124.391,153.034,48.695,164.517,10.848,180.925C-27,197.333,-27,218.667,-27,240C-27,261.333,-27,282.667,-2.603,298.904C21.794,315.142,70.588,326.283,94.985,331.854L119.382,337.425" id="my-svg-L_MAIN001_CATEGORY001_0" class="edge-thickness-normal edge-pattern-solid edge-thickness-normal edge-pattern-solid flowchart-link" style=";" data-edge="true" data-et="edge" data-id="L_MAIN001_CATEGORY001_0" data-points="W3sieCI6MjAwLjA4NTkzNzUsInkiOjE0MS41NTEwMDczODQ0NDcwOH0seyJ4IjotMjcsInkiOjE3Nn0seyJ4IjotMjcsInkiOjI0MH0seyJ4IjotMjcsInkiOjMwNH0seyJ4IjoxMjMuMjgxMjUsInkiOjMzOC4zMTU1MzEyNzQzODk1N31d" data-look="classic" marker-end="url(#my-svg_flowchart-v2-pointEnd)"/><path d="M200.086,148.038L177.655,152.698C155.224,157.358,110.362,166.679,92.151,175.065C73.941,183.451,82.381,190.902,86.601,194.627L90.822,198.353" id="my-svg-L_MAIN001_BRAND001_0" class="edge-thickness-normal edge-pattern-solid edge-thickness-normal edge-pattern-solid flowchart-link" style=";" data-edge="true" data-et="edge" data-id="L_MAIN001_BRAND001_0" data-points="W3sieCI6MjAwLjA4NTkzNzUsInkiOjE0OC4wMzc1ODI3MTk0NDA2Mn0seyJ4Ijo2NS41LCJ5IjoxNzZ9LHsieCI6OTMuODIwMzEyNSwieSI6MjAxfV0=" data-look="classic" marker-end="url(#my-svg_flowchart-v2-pointEnd)"/><path d="M247.188,407L246.536,411.167C245.885,415.333,244.583,423.667,244.608,431.345C244.632,439.024,245.983,446.048,246.658,449.56L247.334,453.072" id="my-svg-L_CATEGORY001_TASK001_0" class="edge-thickness-normal edge-pattern-solid edge-thickness-normal edge-pattern-solid flowchart-link" style=";" data-edge="true" data-et="edge" data-id="L_CATEGORY001_TASK001_0" data-points="W3sieCI6MjQ3LjE4NzUsInkiOjQwN30seyJ4IjoyNDMuMjgxMjUsInkiOjQzMn0seyJ4IjoyNDguMDg4OTQyMzA3NjkyMzIsInkiOjQ1N31d" data-look="classic" marker-end="url(#my-svg_flowchart-v2-pointEnd)"/><path d="M375.67,329L388.746,324.833C401.822,320.667,427.973,312.333,441.049,297.5C454.125,282.667,454.125,261.333,454.125,240C454.125,218.667,454.125,197.333,443.664,182.735C433.203,168.136,412.28,160.272,401.819,156.339L391.358,152.407" id="my-svg-L_CATEGORY001_MAIN001_0" class="edge-thickness-normal edge-pattern-solid edge-thickness-normal edge-pattern-solid flowchart-link" style=";" data-edge="true" data-et="edge" data-id="L_CATEGORY001_MAIN001_0" data-points="W3sieCI6Mzc1LjY3MDQxMDE1NjI1LCJ5IjozMjl9LHsieCI6NDU0LjEyNSwieSI6MzA0fSx7IngiOjQ1NC4xMjUsInkiOjI0MH0seyJ4Ijo0NTQuMTI1LCJ5IjoxNzZ9LHsieCI6Mzg3LjYxMzU4MTczMDc2OTIsInkiOjE1MX1d" data-look="classic" marker-end="url(#my-svg_flowchart-v2-pointEnd)"/><path d="M138,279L138,283.167C138,287.333,138,295.667,144.922,303.676C151.845,311.686,165.69,319.372,172.612,323.215L179.535,327.058" id="my-svg-L_BRAND001_CATEGORY001_0" class="edge-thickness-normal edge-pattern-solid edge-thickness-normal edge-pattern-solid flowchart-link" style=";" data-edge="true" data-et="edge" data-id="L_BRAND001_CATEGORY001_0" data-points="W3sieCI6MTM4LCJ5IjoyNzl9LHsieCI6MTM4LCJ5IjozMDR9LHsieCI6MTgzLjAzMTczODI4MTI1LCJ5IjozMjl9XQ==" data-look="classic" marker-end="url(#my-svg_flowchart-v2-pointEnd)"/><path d="M202.156,201L209.01,196.833C215.864,192.667,229.573,184.333,241.695,176.389C253.816,168.444,264.352,160.888,269.619,157.109L274.887,153.331" id="my-svg-L_BRAND001_MAIN001_0" class="edge-thickness-normal edge-pattern-solid edge-thickness-normal edge-pattern-solid flowchart-link" style=";" data-edge="true" data-et="edge" data-id="L_BRAND001_MAIN001_0" data-points="W3sieCI6MjAyLjE1NTc2MTcxODc1LCJ5IjoyMDF9LHsieCI6MjQzLjI4MTI1LCJ5IjoxNzZ9LHsieCI6Mjc4LjEzNzAxOTIzMDc2OTIsInkiOjE1MX1d" data-look="classic" marker-end="url(#my-svg_flowchart-v2-pointEnd)"/><path d="M253.281,511L253.281,515.167C253.281,519.333,253.281,527.667,275.308,536.405C297.335,545.143,341.389,554.285,363.416,558.857L385.443,563.428" id="my-svg-L_TASK001_TASK002_0" class="edge-thickness-normal edge-pattern-solid edge-thickness-normal edge-pattern-solid flowchart-link" style=";" data-edge="true" data-et="edge" data-id="L_TASK001_TASK002_0" data-points="W3sieCI6MjUzLjI4MTI1LCJ5Ijo1MTF9LHsieCI6MjUzLjI4MTI1LCJ5Ijo1MzZ9LHsieCI6Mzg5LjM1OTM3NSwieSI6NTY0LjI0MDcwODQwNjA4NjR9XQ==" data-look="classic" marker-end="url(#my-svg_flowchart-v2-pointEnd)"/><path d="M335.352,457L348.017,452.833C360.683,448.667,386.013,440.333,389.006,432.25C391.999,424.167,372.653,416.334,362.981,412.418L353.308,408.501" id="my-svg-L_TASK001_CATEGORY001_0" class="edge-thickness-normal edge-pattern-solid edge-thickness-normal edge-pattern-solid flowchart-link" style=";" data-edge="true" data-et="edge" data-id="L_TASK001_CATEGORY001_0" data-points="W3sieCI6MzM1LjM1MjE2MzQ2MTUzODQ1LCJ5Ijo0NTd9LHsieCI6NDExLjM0Mzc1LCJ5Ijo0MzJ9LHsieCI6MzQ5LjYwMDU4NTkzNzUsInkiOjQwN31d" data-look="classic" marker-end="url(#my-svg_flowchart-v2-pointEnd)"/><path d="M503.844,561L503.844,556.833C503.844,552.667,503.844,544.333,503.844,531.5C503.844,518.667,503.844,501.333,503.844,484C503.844,466.667,503.844,449.333,503.844,430C503.844,410.667,503.844,389.333,503.844,368C503.844,346.667,503.844,325.333,503.844,304C503.844,282.667,503.844,261.333,503.844,240C503.844,218.667,503.844,197.333,489.417,182.678C474.991,168.022,446.138,160.044,431.711,156.055L417.284,152.066" id="my-svg-L_TASK002_MAIN001_0" class="edge-thickness-normal edge-pattern-solid edge-thickness-normal edge-pattern-solid flowchart-link" style=";" data-edge="true" data-et="edge" data-id="L_TASK002_MAIN001_0" data-points="W3sieCI6NTAzLjg0Mzc1LCJ5Ijo1NjF9LHsieCI6NTAzLjg0Mzc1LCJ5Ijo1MzZ9LHsieCI6NTAzLjg0Mzc1LCJ5Ijo0ODR9LHsieCI6NTAzLjg0Mzc1LCJ5Ijo0MzJ9LHsieCI6NTAzLjg0Mzc1LCJ5IjozNjh9LHsieCI6NTAzLjg0Mzc1LCJ5IjozMDR9LHsieCI6NTAzLjg0Mzc1LCJ5IjoyNDB9LHsieCI6NTAzLjg0Mzc1LCJ5IjoxNzZ9LHsieCI6NDEzLjQyOTA4NjUzODQ2MTU1LCJ5IjoxNTF9XQ==" data-look="classic" marker-end="url(#my-svg_flowchart-v2-pointEnd)"/><path d="M514.228,561L515.831,556.833C517.433,552.667,520.639,544.333,496.794,535.276C472.95,526.219,422.056,516.437,396.609,511.547L371.162,506.656" id="my-svg-L_TASK002_TASK001_0" class="edge-thickness-normal edge-pattern-solid edge-thickness-normal edge-pattern-solid flowchart-link" style=";" data-edge="true" data-et="edge" data-id="L_TASK002_TASK001_0" data-points="W3sieCI6NTE0LjIyODM2NTM4NDYxNTQsInkiOjU2MX0seyJ4Ijo1MjMuODQzNzUsInkiOjUzNn0seyJ4IjozNjcuMjM0Mzc1LCJ5Ijo1MDUuOTAwOTAwOTAwOTAwOX1d" data-look="classic" marker-end="url(#my-svg_flowchart-v2-pointEnd)"/><path d="M343.187,151L347.416,155.167C351.645,159.333,360.104,167.667,364.333,182.5C368.563,197.333,368.563,218.667,368.563,240C368.563,261.333,368.563,282.667,361.64,297.176C354.718,311.686,340.873,319.372,333.95,323.215L327.028,327.058" id="my-svg-L_MAIN001_CATEGORY001_2" class="edge-thickness-normal edge-pattern-solid edge-thickness-normal edge-pattern-solid flowchart-link" style=";" data-edge="true" data-et="edge" data-id="L_MAIN001_CATEGORY001_2" data-points="W3sieCI6MzQzLjE4Njg5OTAzODQ2MTU1LCJ5IjoxNTF9LHsieCI6MzY4LjU2MjUsInkiOjE3Nn0seyJ4IjozNjguNTYyNSwieSI6MjQwfSx7IngiOjM2OC41NjI1LCJ5IjozMDR9LHsieCI6MzIzLjUzMDc2MTcxODc1LCJ5IjozMjl9XQ==" data-look="classic" marker-end="url(#my-svg_flowchart-v2-pointEnd)"/></g><g class="edgeLabels"><g class="edgeLabel"><g class="label" data-id="L_START_MAIN001_0" transform="translate(0, 0)"><foreignObject width="0" height="0"><div xmlns="http://www.w3.org/1999/xhtml" class="labelBkg" style="display: table-cell; white-space: nowrap; line-height: 1.5; max-width: 200px; text-align: center;"><span class="edgeLabel"></span></div></foreignObject></g></g><g class="edgeLabel"><g class="label" data-id="L_MAIN001_CATEGORY001_0" transform="translate(0, 0)"><foreignObject width="0" height="0"><div xmlns="http://www.w3.org/1999/xhtml" class="labelBkg" style="display: table-cell; white-space: nowrap; line-height: 1.5; max-width: 200px; text-align: center;"><span class="edgeLabel"></span></div></foreignObject></g></g><g class="edgeLabel"><g class="label" data-id="L_MAIN001_BRAND001_0" transform="translate(0, 0)"><foreignObject width="0" height="0"><div xmlns="http://www.w3.org/1999/xhtml" class="labelBkg" style="display: table-cell; white-space: nowrap; line-height: 1.5; max-width: 200px; text-align: center;"><span class="edgeLabel"></span></div></foreignObject></g></g><g class="edgeLabel"><g class="label" data-id="L_CATEGORY001_TASK001_0" transform="translate(0, 0)"><foreignObject width="0" height="0"><div xmlns="http://www.w3.org/1999/xhtml" class="labelBkg" style="display: table-cell; white-space: nowrap; line-height: 1.5; max-width: 200px; text-align: center;"><span class="edgeLabel"></span></div></foreignObject></g></g><g class="edgeLabel"><g class="label" data-id="L_CATEGORY001_MAIN001_0" transform="translate(0, 0)"><foreignObject width="0" height="0"><div xmlns="http://www.w3.org/1999/xhtml" class="labelBkg" style="display: table-cell; white-space: nowrap; line-height: 1.5; max-width: 200px; text-align: center;"><span class="edgeLabel"></span></div></foreignObject></g></g><g class="edgeLabel"><g class="label" data-id="L_BRAND001_CATEGORY001_0" transform="translate(0, 0)"><foreignObject width="0" height="0"><div xmlns="http://www.w3.org/1999/xhtml" class="labelBkg" style="display: table-cell; white-space: nowrap; line-height: 1.5; max-width: 200px; text-align: center;"><span class="edgeLabel"></span></div></foreignObject></g></g><g class="edgeLabel"><g class="label" data-id="L_BRAND001_MAIN001_0" transform="translate(0, 0)"><foreignObject width="0" height="0"><div xmlns="http://www.w3.org/1999/xhtml" class="labelBkg" style="display: table-cell; white-space: nowrap; line-height: 1.5; max-width: 200px; text-align: center;"><span class="edgeLabel"></span></div></foreignObject></g></g><g class="edgeLabel"><g class="label" data-id="L_TASK001_TASK002_0" transform="translate(0, 0)"><foreignObject width="0" height="0"><div xmlns="http://www.w3.org/1999/xhtml" class="labelBkg" style="display: table-cell; white-space: nowrap; line-height: 1.5; max-width: 200px; text-align: center;"><span class="edgeLabel"></span></div></foreignObject></g></g><g class="edgeLabel"><g class="label" data-id="L_TASK001_CATEGORY001_0" transform="translate(0, 0)"><foreignObject width="0" height="0"><div xmlns="http://www.w3.org/1999/xhtml" class="labelBkg" style="display: table-cell; white-space: nowrap; line-height: 1.5; max-width: 200px; text-align: center;"><span class="edgeLabel"></span></div></foreignObject></g></g><g class="edgeLabel"><g class="label" data-id="L_TASK002_MAIN001_0" transform="translate(0, 0)"><foreignObject width="0" height="0"><div xmlns="http://www.w3.org/1999/xhtml" class="labelBkg" style="display: table-cell; white-space: nowrap; line-height: 1.5; max-width: 200px; text-align: center;"><span class="edgeLabel"></span></div></foreignObject></g></g><g class="edgeLabel"><g class="label" data-id="L_TASK002_TASK001_0" transform="translate(0, 0)"><foreignObject width="0" height="0"><div xmlns="http://www.w3.org/1999/xhtml" class="labelBkg" style="display: table-cell; white-space: nowrap; line-height: 1.5; max-width: 200px; text-align: center;"><span class="edgeLabel"></span></div></foreignObject></g></g><g class="edgeLabel" transform="translate(368.5625, 240)"><g class="label" data-id="L_MAIN001_CATEGORY001_2" transform="translate(-65.5625, -12)"><foreignObject width="131.125" height="24"><div xmlns="http://www.w3.org/1999/xhtml" class="labelBkg" style="display: table-cell; white-space: nowrap; line-height: 1.5; max-width: 200px; text-align: center;"><span class="edgeLabel"><p>PRODUCT-001~015</p></span></div></foreignObject></g></g></g><g class="nodes"><g class="node default" id="my-svg-flowchart-START-0" data-look="classic" transform="translate(315.78125, 27.5)"><g class="basic label-container outer-path"><path d="M-7.6015625 -19.5 C-4.520503147844943 -19.5, -1.4394437956898871 -19.5, 7.6015625 -19.5 C7.6015625 -19.5, 7.6015625 -19.5, 7.601562499999999 -19.5 C8.057638181206878 -19.485374540601157, 8.513713862413757 -19.47074908120231, 8.8509317896239 -19.45993515863156 C9.288313277419805 -19.417741492532087, 9.725694765215712 -19.375547826432616, 10.095167152847864 -19.3399052695533 C10.388614844250652 -19.29246292252813, 10.682062535653438 -19.245020575502963, 11.329155759676757 -19.140403561325776 C11.794004515045343 -19.034304866334512, 12.258853270413926 -18.92820617134325, 12.54782688623539 -18.862249829261074 C12.879331697313535 -18.763860941437343, 13.210836508391681 -18.665472053613613, 13.746172751460602 -18.50658706670804 C14.192920836090611 -18.34217964187017, 14.639668920720622 -18.177772217032302, 14.919269095147794 -18.074876768247425 C15.299636817589306 -17.90649926073016, 15.68000454003082 -17.738121753212894, 16.06229541279238 -17.568892924097174 C16.345680035397244 -17.42105134800073, 16.629064658002108 -17.273209771904288, 17.170554764076783 -16.990714730406097 C17.546107596227696 -16.7630523965628, 17.92166042837861 -16.5353900627195, 18.239493073605697 -16.342718045390892 C18.587130953703465 -16.100220909235972, 18.934768833801236 -15.857723773081052, 19.264717844578712 -15.627565626425154 C19.47819292821787 -15.457324928033481, 19.691668011857026 -15.287084229641808, 20.24201620850187 -14.848196188198123 C20.492696816299645 -14.620534692841611, 20.743377424097417 -14.392873197485097, 21.167372236767985 -14.007812326905688 C21.46764842027109 -13.697752514305582, 21.76792460377419 -13.387692701705475, 22.036983442968648 -13.10986736009568 C22.295918821469186 -12.805707130668521, 22.554854199969725 -12.501546901241362, 22.847276408126582 -12.158051136245305 C23.06030273079391 -11.872615270968321, 23.273329053461236 -11.587179405691337, 23.594921464640635 -11.156274872382312 C23.752774638429575 -10.913770007930244, 23.910627812218518 -10.671265143478179, 24.276846378604247 -10.108655082055241 C24.520692023900587 -9.675682446782492, 24.764537669196926 -9.24270981150974, 24.8902489742735 -9.019496659696287 C25.08021575913275 -8.625026566298006, 25.270182543991996 -8.230556472899725, 25.43260864880834 -7.893275190886684 C25.537067024496114 -7.635260983372578, 25.64152540018389 -7.377246775858471, 25.901696729970325 -6.734618561215508 C26.03874485906576 -6.321851432034096, 26.17579298816119 -5.909084302852683, 26.29558563421488 -5.548287939305138 C26.381961014000467 -5.218901180856298, 26.468336393786053 -4.8895144224074585, 26.61265678754556 -4.339158212148133 C26.69647478240194 -3.9087705235001184, 26.780292777258317 -3.478382834852104, 26.851607276581777 -3.1121979531509023 C26.893164979130987 -2.7898846186758313, 26.934722681680192 -2.4675712842007607, 27.011455202509367 -1.872449005199798 C27.028477316112056 -1.6073158458351298, 27.04549942971474 -1.3421826864704616, 27.091543715913414 -0.6250057626472757 C27.091543715913414 -0.16054392101301845, 27.091543715913414 0.3039179206212388, 27.091543715913414 0.625005762647271 C27.07511581983526 0.8808835044235233, 27.058687923757113 1.1367612461997754, 27.011455202509367 1.8724490051997846 C26.95660041989322 2.297891866868587, 26.90174563727707 2.7233347285373894, 26.851607276581777 3.1121979531508885 C26.761285926541813 3.575978996182023, 26.670964576501845 4.039760039213158, 26.61265678754556 4.339158212148129 C26.532370816657213 4.645323415305292, 26.452084845768866 4.951488618462455, 26.295585634214884 5.548287939305125 C26.156646798585715 5.966749575322977, 26.017707962956546 6.3852112113408275, 25.90169672997033 6.734618561215495 C25.806225793064158 6.970433621178737, 25.710754856157983 7.206248681141978, 25.432608648808344 7.893275190886679 C25.216553254627062 8.341918839748985, 25.000497860445776 8.790562488611291, 24.890248974273504 9.019496659696284 C24.71073429414963 9.338243152088717, 24.53121961402576 9.65698964448115, 24.27684637860425 10.108655082055236 C24.015266312019158 10.510512308412915, 23.753686245434064 10.912369534770594, 23.59492146464064 11.156274872382301 C23.330517678174022 11.510551858567094, 23.066113891707403 11.864828844751887, 22.847276408126582 12.158051136245302 C22.59480967641538 12.454612925077276, 22.342342944704182 12.75117471390925, 22.03698344296866 13.10986736009567 C21.82291725855269 13.330908270665754, 21.608851074136716 13.551949181235837, 21.16737223676799 14.007812326905684 C20.86490331039303 14.282506602950177, 20.56243438401807 14.55720087899467, 20.242016208501887 14.848196188198111 C20.02226716790007 15.023440200310501, 19.80251812729825 15.19868421242289, 19.264717844578715 15.627565626425152 C18.899655719419755 15.882217161651349, 18.534593594260794 16.136868696877546, 18.239493073605708 16.34271804539089 C17.9897673275115 16.494103260224577, 17.740041581417298 16.64548847505826, 17.170554764076787 16.990714730406093 C16.947853992001217 17.106897580551266, 16.725153219925648 17.223080430696438, 16.062295412792388 17.56889292409717 C15.641189156551592 17.75530417206171, 15.220082900310796 17.94171542002625, 14.919269095147804 18.07487676824742 C14.67436491502261 18.165003770402915, 14.429460734897416 18.255130772558413, 13.746172751460616 18.506587066708033 C13.441358739319476 18.597054265510124, 13.136544727178334 18.687521464312216, 12.547826886235413 18.86224982926107 C12.241202539416758 18.93223483551157, 11.934578192598105 19.00221984176207, 11.329155759676766 19.140403561325773 C11.00466959511024 19.1928639679851, 10.680183430543714 19.245324374644426, 10.095167152847878 19.3399052695533 C9.783679470853073 19.369954111616593, 9.472191788858268 19.400002953679884, 8.8509317896239 19.45993515863156 C8.541804338587045 19.46984827430623, 8.232676887550191 19.4797613899809, 7.6015625000000036 19.5 C7.601562500000003 19.5, 7.601562500000002 19.5, 7.6015625 19.5 C3.227867924179378 19.5, -1.1458266516412436 19.5, -7.6015624999999964 19.5 C-7.857735840278234 19.491785019588434, -8.11390918055647 19.48357003917687, -8.850931789623893 19.45993515863156 C-9.311437265148315 19.415510749246582, -9.77194274067274 19.371086339861606, -10.095167152847871 19.3399052695533 C-10.465574329058198 19.280020709854167, -10.835981505268526 19.22013615015503, -11.329155759676759 19.140403561325773 C-11.739227071124457 19.046807460453223, -12.149298382572155 18.953211359580678, -12.547826886235388 18.862249829261074 C-13.007574834354658 18.725799051525502, -13.467322782473929 18.589348273789927, -13.746172751460593 18.506587066708043 C-13.986709984062012 18.418067141608915, -14.22724721666343 18.32954721650979, -14.919269095147797 18.074876768247425 C-15.344139972130758 17.886799034353835, -15.769010849113718 17.698721300460246, -16.06229541279238 17.568892924097174 C-16.34946145619886 17.419078583190643, -16.636627499605343 17.269264242284112, -17.17055476407678 16.990714730406097 C-17.430097365076882 16.83337848043821, -17.68963996607699 16.676042230470326, -18.239493073605686 16.3427180453909 C-18.464597704212732 16.185694799701828, -18.68970233481978 16.028671554012757, -19.264717844578712 15.627565626425156 C-19.545636755042644 15.40354027089633, -19.82655566550658 15.179514915367506, -20.24201620850187 14.848196188198125 C-20.481256669674675 14.630924331316717, -20.720497130847477 14.413652474435306, -21.167372236767974 14.007812326905697 C-21.3711704986055 13.79737388940998, -21.574968760443024 13.586935451914265, -22.036983442968655 13.109867360095677 C-22.35554599806046 12.735665656161949, -22.674108553152266 12.361463952228222, -22.84727640812658 12.158051136245307 C-23.14237574588021 11.762644907758173, -23.43747508363384 11.367238679271038, -23.594921464640635 11.156274872382316 C-23.823286200876556 10.805445313006022, -24.051650937112473 10.454615753629726, -24.276846378604244 10.108655082055249 C-24.454533111299394 9.793154295422259, -24.632219843994545 9.477653508789267, -24.8902489742735 9.019496659696289 C-25.05125963331506 8.68515458112028, -25.212270292356617 8.350812502544272, -25.43260864880834 7.893275190886686 C-25.56397156684413 7.568806243609039, -25.695334484879922 7.244337296331392, -25.901696729970325 6.73461856121551 C-26.056262954139683 6.269089720800842, -26.21082917830904 5.803560880386174, -26.29558563421488 5.5482879393051325 C-26.36276451107382 5.292105766332585, -26.429943387932763 5.035923593360037, -26.612656787545557 4.339158212148136 C-26.701190594599247 3.8845558245541985, -26.789724401652933 3.429953436960261, -26.851607276581777 3.112197953150904 C-26.888853943083056 2.823320162953198, -26.92610060958434 2.5344423727554917, -27.011455202509364 1.872449005199809 C-27.031867939829898 1.554504144567518, -27.052280677150428 1.236559283935227, -27.091543715913414 0.6250057626472781 C-27.091543715913414 0.326636099701034, -27.091543715913414 0.028266436754789903, -27.091543715913414 -0.6250057626472687 C-27.069969043358302 -0.9610487024553882, -27.04839437080319 -1.2970916422635077, -27.011455202509367 -1.8724490051997822 C-26.950330231362518 -2.3465222109239328, -26.889205260215668 -2.8205954166480836, -26.851607276581777 -3.112197953150895 C-26.785808600199697 -3.450060249817693, -26.72000992381762 -3.7879225464844906, -26.61265678754556 -4.339158212148126 C-26.510758979454398 -4.727738717189119, -26.408861171363235 -5.116319222230112, -26.295585634214884 -5.548287939305123 C-26.20854806929495 -5.810431217291251, -26.121510504375014 -6.0725744952773795, -25.901696729970332 -6.734618561215485 C-25.763053452277166 -7.077070137603029, -25.624410174584 -7.419521713990574, -25.432608648808344 -7.893275190886676 C-25.242245786971562 -8.288567746603498, -25.05188292513478 -8.683860302320321, -24.890248974273504 -9.019496659696282 C-24.64943834453918 -9.44708031751002, -24.40862771480486 -9.874663975323758, -24.276846378604247 -10.108655082055243 C-24.110728045236183 -10.363857451126954, -23.944609711868114 -10.619059820198665, -23.59492146464064 -11.156274872382308 C-23.300888341558682 -11.55025247034356, -23.006855218476726 -11.944230068304812, -22.847276408126586 -12.158051136245302 C-22.64126812571906 -12.400040186964526, -22.435259843311535 -12.64202923768375, -22.036983442968662 -13.10986736009567 C-21.824931712332475 -13.328828181748396, -21.612879981696288 -13.547789003401121, -21.167372236767996 -14.007812326905677 C-20.8773577535958 -14.27119580715993, -20.5873432704236 -14.534579287414182, -20.242016208501887 -14.848196188198107 C-19.969208150084043 -15.065753355059016, -19.6964000916662 -15.283310521919924, -19.26471784457872 -15.627565626425149 C-18.970941000085435 -15.832491635749035, -18.677164155592152 -16.03741764507292, -18.23949307360571 -16.342718045390885 C-17.875518675310587 -16.563361464588375, -17.511544277015464 -16.78400488378586, -17.17055476407679 -16.99071473040609 C-16.736375576071538 -17.21722573468339, -16.302196388066285 -17.443736738960688, -16.062295412792388 -17.56889292409717 C-15.814177623202076 -17.67872730939608, -15.566059833611762 -17.78856169469499, -14.919269095147806 -18.07487676824742 C-14.563145123546029 -18.20593368177078, -14.207021151944252 -18.33699059529414, -13.746172751460618 -18.506587066708033 C-13.378942934825789 -18.61557894865661, -13.011713118190958 -18.72457083060518, -12.547826886235413 -18.862249829261067 C-12.147494270885673 -18.953623136300187, -11.747161655535933 -19.044996443339308, -11.329155759676768 -19.140403561325773 C-10.885887447070843 -19.212067744510794, -10.44261913446492 -19.283731927695815, -10.09516715284788 -19.3399052695533 C-9.707902237352917 -19.377264250196895, -9.320637321857953 -19.41462323084049, -8.850931789623903 -19.45993515863156 C-8.382557696525856 -19.474955004162346, -7.914183603427809 -19.489974849693134, -7.601562500000006 -19.5 C-7.6015625000000036 -19.5, -7.601562500000002 -19.5, -7.6015625 -19.5" stroke="none" stroke-width="0" fill="#ECECFF" style=""/><path d="M-7.6015625 -19.5 C-1.6210262585029582 -19.5, 4.3595099829940835 -19.5, 7.6015625 -19.5 M-7.6015625 -19.5 C-4.318228711814986 -19.5, -1.034894923629972 -19.5, 7.6015625 -19.5 M7.6015625 -19.5 C7.6015625 -19.5, 7.601562499999999 -19.5, 7.601562499999999 -19.5 M7.6015625 -19.5 C7.6015625 -19.5, 7.601562499999999 -19.5, 7.601562499999999 -19.5 M7.601562499999999 -19.5 C7.98995846056489 -19.487544897511558, 8.378354421129782 -19.47508979502312, 8.8509317896239 -19.45993515863156 M7.601562499999999 -19.5 C7.963937387973149 -19.488379342662633, 8.326312275946298 -19.47675868532526, 8.8509317896239 -19.45993515863156 M8.8509317896239 -19.45993515863156 C9.209627020306517 -19.425332261121735, 9.568322250989134 -19.390729363611914, 10.095167152847864 -19.3399052695533 M8.8509317896239 -19.45993515863156 C9.161039376659613 -19.430019452669164, 9.471146963695325 -19.400103746706765, 10.095167152847864 -19.3399052695533 M10.095167152847864 -19.3399052695533 C10.496713985566396 -19.274986291681564, 10.89826081828493 -19.210067313809827, 11.329155759676757 -19.140403561325776 M10.095167152847864 -19.3399052695533 C10.423231217760407 -19.28686641571306, 10.751295282672949 -19.233827561872822, 11.329155759676757 -19.140403561325776 M11.329155759676757 -19.140403561325776 C11.723561785946028 -19.050382959569664, 12.1179678122153 -18.96036235781355, 12.54782688623539 -18.862249829261074 M11.329155759676757 -19.140403561325776 C11.778036628473192 -19.037949432244407, 12.226917497269627 -18.93549530316304, 12.54782688623539 -18.862249829261074 M12.54782688623539 -18.862249829261074 C13.0216494457556 -18.721621780740843, 13.495472005275808 -18.580993732220616, 13.746172751460602 -18.50658706670804 M12.54782688623539 -18.862249829261074 C12.856614492278085 -18.77060328864682, 13.16540209832078 -18.678956748032572, 13.746172751460602 -18.50658706670804 M13.746172751460602 -18.50658706670804 C14.187074448771934 -18.344331166446857, 14.627976146083267 -18.182075266185674, 14.919269095147794 -18.074876768247425 M13.746172751460602 -18.50658706670804 C14.141223636789968 -18.361204689096482, 14.536274522119333 -18.21582231148492, 14.919269095147794 -18.074876768247425 M14.919269095147794 -18.074876768247425 C15.26262651989285 -17.92288262164891, 15.605983944637906 -17.77088847505039, 16.06229541279238 -17.568892924097174 M14.919269095147794 -18.074876768247425 C15.372728577897254 -17.874143706631866, 15.826188060646713 -17.673410645016308, 16.06229541279238 -17.568892924097174 M16.06229541279238 -17.568892924097174 C16.467782831175953 -17.35735039765355, 16.873270249559525 -17.145807871209932, 17.170554764076783 -16.990714730406097 M16.06229541279238 -17.568892924097174 C16.43135530312011 -17.376354615707342, 16.800415193447837 -17.183816307317507, 17.170554764076783 -16.990714730406097 M17.170554764076783 -16.990714730406097 C17.47464203680881 -16.80637523866077, 17.778729309540836 -16.622035746915447, 18.239493073605697 -16.342718045390892 M17.170554764076783 -16.990714730406097 C17.421708276867832 -16.838463995010294, 17.672861789658878 -16.686213259614494, 18.239493073605697 -16.342718045390892 M18.239493073605697 -16.342718045390892 C18.53345084873889 -16.13766582668497, 18.82740862387208 -15.932613607979045, 19.264717844578712 -15.627565626425154 M18.239493073605697 -16.342718045390892 C18.602303001725023 -16.089637545323505, 18.965112929844352 -15.83655704525612, 19.264717844578712 -15.627565626425154 M19.264717844578712 -15.627565626425154 C19.649135039139825 -15.321003143533838, 20.033552233700934 -15.01444066064252, 20.24201620850187 -14.848196188198123 M19.264717844578712 -15.627565626425154 C19.517689947185545 -15.425827106466576, 19.770662049792378 -15.224088586507998, 20.24201620850187 -14.848196188198123 M20.24201620850187 -14.848196188198123 C20.496338762884726 -14.617227173313664, 20.750661317267582 -14.386258158429206, 21.167372236767985 -14.007812326905688 M20.24201620850187 -14.848196188198123 C20.551435433367537 -14.567189834959194, 20.8608546582332 -14.286183481720265, 21.167372236767985 -14.007812326905688 M21.167372236767985 -14.007812326905688 C21.499392595865668 -13.664974046758893, 21.831412954963348 -13.3221357666121, 22.036983442968648 -13.10986736009568 M21.167372236767985 -14.007812326905688 C21.494038689842405 -13.67050239429177, 21.82070514291683 -13.33319246167785, 22.036983442968648 -13.10986736009568 M22.036983442968648 -13.10986736009568 C22.3460942675526 -12.746768196635179, 22.65520509213656 -12.383669033174677, 22.847276408126582 -12.158051136245305 M22.036983442968648 -13.10986736009568 C22.35368524232088 -12.73785140573366, 22.670387041673113 -12.365835451371638, 22.847276408126582 -12.158051136245305 M22.847276408126582 -12.158051136245305 C23.103902835735155 -11.814195102398322, 23.360529263343732 -11.470339068551342, 23.594921464640635 -11.156274872382312 M22.847276408126582 -12.158051136245305 C23.09288375297468 -11.828959669438275, 23.338491097822775 -11.499868202631244, 23.594921464640635 -11.156274872382312 M23.594921464640635 -11.156274872382312 C23.741314090248892 -10.931376487523869, 23.887706715857146 -10.706478102665423, 24.276846378604247 -10.108655082055241 M23.594921464640635 -11.156274872382312 C23.734316330484425 -10.942126925683691, 23.873711196328216 -10.72797897898507, 24.276846378604247 -10.108655082055241 M24.276846378604247 -10.108655082055241 C24.470906434653315 -9.764081801828597, 24.664966490702383 -9.419508521601951, 24.8902489742735 -9.019496659696287 M24.276846378604247 -10.108655082055241 C24.497038836453783 -9.71768107623924, 24.71723129430332 -9.326707070423238, 24.8902489742735 -9.019496659696287 M24.8902489742735 -9.019496659696287 C25.106718824827478 -8.569992383308133, 25.32318867538146 -8.12048810691998, 25.43260864880834 -7.893275190886684 M24.8902489742735 -9.019496659696287 C25.100429948548356 -8.583051369462131, 25.31061092282321 -8.146606079227977, 25.43260864880834 -7.893275190886684 M25.43260864880834 -7.893275190886684 C25.597229589570752 -7.486658284474156, 25.761850530333167 -7.080041378061626, 25.901696729970325 -6.734618561215508 M25.43260864880834 -7.893275190886684 C25.574434682986006 -7.542962144448021, 25.71626071716367 -7.192649098009358, 25.901696729970325 -6.734618561215508 M25.901696729970325 -6.734618561215508 C26.053300718603836 -6.278011502266669, 26.20490470723735 -5.821404443317832, 26.29558563421488 -5.548287939305138 M25.901696729970325 -6.734618561215508 C26.031736079617225 -6.342960759035726, 26.16177542926412 -5.951302956855945, 26.29558563421488 -5.548287939305138 M26.29558563421488 -5.548287939305138 C26.40962162420003 -5.113419285981059, 26.523657614185183 -4.67855063265698, 26.61265678754556 -4.339158212148133 M26.29558563421488 -5.548287939305138 C26.36072162254161 -5.299896185699395, 26.425857610868345 -5.051504432093653, 26.61265678754556 -4.339158212148133 M26.61265678754556 -4.339158212148133 C26.663853226017377 -4.076275320966461, 26.715049664489193 -3.813392429784789, 26.851607276581777 -3.1121979531509023 M26.61265678754556 -4.339158212148133 C26.697503333135682 -3.9034891328666173, 26.782349878725803 -3.4678200535851014, 26.851607276581777 -3.1121979531509023 M26.851607276581777 -3.1121979531509023 C26.891139001267568 -2.805597702909916, 26.93067072595336 -2.49899745266893, 27.011455202509367 -1.872449005199798 M26.851607276581777 -3.1121979531509023 C26.89673506706692 -2.7621957216383324, 26.94186285755206 -2.412193490125763, 27.011455202509367 -1.872449005199798 M27.011455202509367 -1.872449005199798 C27.036497151636844 -1.4824004340417924, 27.061539100764325 -1.0923518628837867, 27.091543715913414 -0.6250057626472757 M27.011455202509367 -1.872449005199798 C27.030708614627446 -1.5725615703861722, 27.049962026745526 -1.2726741355725464, 27.091543715913414 -0.6250057626472757 M27.091543715913414 -0.6250057626472757 C27.091543715913414 -0.23872621702339908, 27.091543715913414 0.14755332860047754, 27.091543715913414 0.625005762647271 M27.091543715913414 -0.6250057626472757 C27.091543715913414 -0.19775690117222755, 27.091543715913414 0.2294919603028206, 27.091543715913414 0.625005762647271 M27.091543715913414 0.625005762647271 C27.070486725181095 0.952985390200144, 27.049429734448776 1.280965017753017, 27.011455202509367 1.8724490051997846 M27.091543715913414 0.625005762647271 C27.065388254644684 1.0323981842160928, 27.03923279337595 1.4397906057849146, 27.011455202509367 1.8724490051997846 M27.011455202509367 1.8724490051997846 C26.951145695077386 2.340197635382941, 26.890836187645405 2.8079462655660974, 26.851607276581777 3.1121979531508885 M27.011455202509367 1.8724490051997846 C26.956835579747253 2.2960680134782696, 26.90221595698514 2.719687021756754, 26.851607276581777 3.1121979531508885 M26.851607276581777 3.1121979531508885 C26.780855368014397 3.4754940502232237, 26.710103459447016 3.838790147295559, 26.61265678754556 4.339158212148129 M26.851607276581777 3.1121979531508885 C26.78148919742676 3.472239470150617, 26.711371118271746 3.832280987150346, 26.61265678754556 4.339158212148129 M26.61265678754556 4.339158212148129 C26.52330484379468 4.679895899047628, 26.433952900043796 5.0206335859471265, 26.295585634214884 5.548287939305125 M26.61265678754556 4.339158212148129 C26.48761231206327 4.816006991780594, 26.36256783658098 5.292855771413059, 26.295585634214884 5.548287939305125 M26.295585634214884 5.548287939305125 C26.19588389002394 5.848573707492583, 26.096182145832994 6.148859475680039, 25.90169672997033 6.734618561215495 M26.295585634214884 5.548287939305125 C26.209188215957187 5.808503197538111, 26.122790797699487 6.068718455771097, 25.90169672997033 6.734618561215495 M25.90169672997033 6.734618561215495 C25.792603376186726 7.004081254237502, 25.683510022403127 7.27354394725951, 25.432608648808344 7.893275190886679 M25.90169672997033 6.734618561215495 C25.75324799609167 7.101289803956805, 25.60479926221301 7.467961046698115, 25.432608648808344 7.893275190886679 M25.432608648808344 7.893275190886679 C25.21726845632047 8.340433708129757, 25.001928263832596 8.787592225372833, 24.890248974273504 9.019496659696284 M25.432608648808344 7.893275190886679 C25.278491189349044 8.213303393039283, 25.124373729889747 8.533331595191887, 24.890248974273504 9.019496659696284 M24.890248974273504 9.019496659696284 C24.74065955132303 9.285107827716468, 24.591070128372557 9.550718995736654, 24.27684637860425 10.108655082055236 M24.890248974273504 9.019496659696284 C24.695053314793764 9.366086318806406, 24.49985765531402 9.712675977916529, 24.27684637860425 10.108655082055236 M24.27684637860425 10.108655082055236 C24.11771386280533 10.353125359386063, 23.958581347006408 10.59759563671689, 23.59492146464064 11.156274872382301 M24.27684637860425 10.108655082055236 C24.053790221533728 10.451329238280376, 23.830734064463208 10.794003394505516, 23.59492146464064 11.156274872382301 M23.59492146464064 11.156274872382301 C23.36381144154924 11.465941248768543, 23.132701418457838 11.775607625154786, 22.847276408126582 12.158051136245302 M23.59492146464064 11.156274872382301 C23.390699429398726 11.429913794596319, 23.186477394156807 11.703552716810337, 22.847276408126582 12.158051136245302 M22.847276408126582 12.158051136245302 C22.650916608291283 12.388706530320977, 22.454556808455983 12.619361924396653, 22.03698344296866 13.10986736009567 M22.847276408126582 12.158051136245302 C22.625733626350236 12.418287893861198, 22.40419084457389 12.678524651477096, 22.03698344296866 13.10986736009567 M22.03698344296866 13.10986736009567 C21.806170322296875 13.348200857298917, 21.575357201625092 13.586534354502165, 21.16737223676799 14.007812326905684 M22.03698344296866 13.10986736009567 C21.774825766395296 13.380566684703199, 21.512668089821933 13.651266009310726, 21.16737223676799 14.007812326905684 M21.16737223676799 14.007812326905684 C20.86237239347029 14.284805114735013, 20.557372550172595 14.561797902564344, 20.242016208501887 14.848196188198111 M21.16737223676799 14.007812326905684 C20.97304382558902 14.184296248290417, 20.77871541441005 14.36078016967515, 20.242016208501887 14.848196188198111 M20.242016208501887 14.848196188198111 C19.851868373447033 15.15932870438444, 19.46172053839218 15.470461220570767, 19.264717844578715 15.627565626425152 M20.242016208501887 14.848196188198111 C19.881790280840416 15.135466779493612, 19.521564353178945 15.422737370789115, 19.264717844578715 15.627565626425152 M19.264717844578715 15.627565626425152 C18.917143851990954 15.870018197418739, 18.56956985940319 16.112470768412326, 18.239493073605708 16.34271804539089 M19.264717844578715 15.627565626425152 C19.021218656340192 15.797420119230377, 18.77771946810167 15.967274612035602, 18.239493073605708 16.34271804539089 M18.239493073605708 16.34271804539089 C17.815682335451342 16.599634605448415, 17.391871597296976 16.856551165505937, 17.170554764076787 16.990714730406093 M18.239493073605708 16.34271804539089 C18.018101012818278 16.47692721368439, 17.796708952030844 16.611136381977897, 17.170554764076787 16.990714730406093 M17.170554764076787 16.990714730406093 C16.823110078874514 17.171976400127175, 16.475665393672244 17.35323806984826, 16.062295412792388 17.56889292409717 M17.170554764076787 16.990714730406093 C16.794652482993335 17.186822709670427, 16.418750201909884 17.382930688934763, 16.062295412792388 17.56889292409717 M16.062295412792388 17.56889292409717 C15.83102174582081 17.67127091597591, 15.599748078849233 17.77364890785465, 14.919269095147804 18.07487676824742 M16.062295412792388 17.56889292409717 C15.826575080222531 17.67323932293062, 15.590854747652674 17.77758572176407, 14.919269095147804 18.07487676824742 M14.919269095147804 18.07487676824742 C14.562215964090575 18.206275621039442, 14.205162833033347 18.337674473831466, 13.746172751460616 18.506587066708033 M14.919269095147804 18.07487676824742 C14.615186533440582 18.186781961864064, 14.31110397173336 18.29868715548071, 13.746172751460616 18.506587066708033 M13.746172751460616 18.506587066708033 C13.376972816650476 18.616163669389678, 13.007772881840333 18.725740272071327, 12.547826886235413 18.86224982926107 M13.746172751460616 18.506587066708033 C13.351114297223619 18.623838342221433, 12.956055842986622 18.741089617734833, 12.547826886235413 18.86224982926107 M12.547826886235413 18.86224982926107 C12.09809605479025 18.964897956770486, 11.648365223345088 19.0675460842799, 11.329155759676766 19.140403561325773 M12.547826886235413 18.86224982926107 C12.087221156326526 18.967380081379485, 11.62661542641764 19.0725103334979, 11.329155759676766 19.140403561325773 M11.329155759676766 19.140403561325773 C10.893646834675128 19.210813266897883, 10.45813790967349 19.281222972469994, 10.095167152847878 19.3399052695533 M11.329155759676766 19.140403561325773 C10.894727564279044 19.210638542916705, 10.460299368881323 19.280873524507637, 10.095167152847878 19.3399052695533 M10.095167152847878 19.3399052695533 C9.607727932758811 19.386927944883862, 9.120288712669742 19.43395062021442, 8.8509317896239 19.45993515863156 M10.095167152847878 19.3399052695533 C9.810350202533316 19.367381218207647, 9.525533252218752 19.394857166861993, 8.8509317896239 19.45993515863156 M8.8509317896239 19.45993515863156 C8.595079237953238 19.468139851976858, 8.339226686282576 19.476344545322153, 7.6015625000000036 19.5 M8.8509317896239 19.45993515863156 C8.585452162302234 19.46844857355502, 8.31997253498057 19.476961988478475, 7.6015625000000036 19.5 M7.6015625000000036 19.5 C7.601562500000003 19.5, 7.601562500000001 19.5, 7.6015625 19.5 M7.6015625000000036 19.5 C7.601562500000003 19.5, 7.601562500000002 19.5, 7.6015625 19.5 M7.6015625 19.5 C3.0091011093009277 19.5, -1.5833602813981447 19.5, -7.6015624999999964 19.5 M7.6015625 19.5 C4.169882894802875 19.5, 0.7382032896057495 19.5, -7.6015624999999964 19.5 M-7.6015624999999964 19.5 C-7.853469450618969 19.491921834400785, -8.105376401237942 19.48384366880157, -8.850931789623893 19.45993515863156 M-7.6015624999999964 19.5 C-7.9560741399001484 19.48863150172345, -8.3105857798003 19.477263003446897, -8.850931789623893 19.45993515863156 M-8.850931789623893 19.45993515863156 C-9.263182817091348 19.42016579781617, -9.675433844558805 19.380396437000787, -10.095167152847871 19.3399052695533 M-8.850931789623893 19.45993515863156 C-9.280447948910261 19.41850025131396, -9.709964108196628 19.377065343996364, -10.095167152847871 19.3399052695533 M-10.095167152847871 19.3399052695533 C-10.539061071731911 19.268139943196882, -10.982954990615951 19.196374616840462, -11.329155759676759 19.140403561325773 M-10.095167152847871 19.3399052695533 C-10.563839040326606 19.264134033390505, -11.03251092780534 19.188362797227715, -11.329155759676759 19.140403561325773 M-11.329155759676759 19.140403561325773 C-11.58871107965866 19.081161753296655, -11.848266399640561 19.02191994526754, -12.547826886235388 18.862249829261074 M-11.329155759676759 19.140403561325773 C-11.622378752485192 19.073477326676098, -11.915601745293623 19.006551092026424, -12.547826886235388 18.862249829261074 M-12.547826886235388 18.862249829261074 C-12.900801013586024 18.75748896106241, -13.253775140936659 18.652728092863743, -13.746172751460593 18.506587066708043 M-12.547826886235388 18.862249829261074 C-12.889363975026113 18.76088341407275, -13.230901063816837 18.659516998884428, -13.746172751460593 18.506587066708043 M-13.746172751460593 18.506587066708043 C-14.086973621589035 18.381169196172067, -14.427774491717477 18.25575132563609, -14.919269095147797 18.074876768247425 M-13.746172751460593 18.506587066708043 C-14.16614621729873 18.352032949087448, -14.586119683136866 18.197478831466853, -14.919269095147797 18.074876768247425 M-14.919269095147797 18.074876768247425 C-15.230336648985851 17.93717638965445, -15.541404202823905 17.799476011061472, -16.06229541279238 17.568892924097174 M-14.919269095147797 18.074876768247425 C-15.375952348047463 17.87271663921611, -15.832635600947127 17.670556510184802, -16.06229541279238 17.568892924097174 M-16.06229541279238 17.568892924097174 C-16.470338799241265 17.356016950751055, -16.878382185690146 17.143140977404936, -17.17055476407678 16.990714730406097 M-16.06229541279238 17.568892924097174 C-16.498181885869897 17.341491230291243, -16.934068358947414 17.114089536485317, -17.17055476407678 16.990714730406097 M-17.17055476407678 16.990714730406097 C-17.542161473389783 16.765444559417134, -17.913768182702785 16.540174388428166, -18.239493073605686 16.3427180453909 M-17.17055476407678 16.990714730406097 C-17.388699538481518 16.858474086200957, -17.606844312886253 16.726233441995813, -18.239493073605686 16.3427180453909 M-18.239493073605686 16.3427180453909 C-18.502929293092013 16.158956342647382, -18.766365512578336 15.975194639903863, -19.264717844578712 15.627565626425156 M-18.239493073605686 16.3427180453909 C-18.475752600902 16.17791362665909, -18.712012128198314 16.013109207927283, -19.264717844578712 15.627565626425156 M-19.264717844578712 15.627565626425156 C-19.470594253631678 15.463384668806748, -19.676470662684643 15.299203711188339, -20.24201620850187 14.848196188198125 M-19.264717844578712 15.627565626425156 C-19.635528676024872 15.331853856037483, -20.006339507471036 15.036142085649809, -20.24201620850187 14.848196188198125 M-20.24201620850187 14.848196188198125 C-20.490703033485225 14.622345393641064, -20.73938985846858 14.396494599084003, -21.167372236767974 14.007812326905697 M-20.24201620850187 14.848196188198125 C-20.579100274563196 14.542065358156883, -20.916184340624522 14.235934528115642, -21.167372236767974 14.007812326905697 M-21.167372236767974 14.007812326905697 C-21.476151852905673 13.68897202196557, -21.78493146904337 13.370131717025444, -22.036983442968655 13.109867360095677 M-21.167372236767974 14.007812326905697 C-21.436463378141436 13.729953630644022, -21.705554519514894 13.45209493438235, -22.036983442968655 13.109867360095677 M-22.036983442968655 13.109867360095677 C-22.22754073529106 12.886027921516677, -22.418098027613464 12.662188482937678, -22.84727640812658 12.158051136245307 M-22.036983442968655 13.109867360095677 C-22.30721992559036 12.79243221071675, -22.57745640821207 12.474997061337826, -22.84727640812658 12.158051136245307 M-22.84727640812658 12.158051136245307 C-23.11016200663476 11.805808383615055, -23.37304760514294 11.453565630984802, -23.594921464640635 11.156274872382316 M-22.84727640812658 12.158051136245307 C-23.08892529000639 11.834263649192382, -23.330574171886205 11.510476162139458, -23.594921464640635 11.156274872382316 M-23.594921464640635 11.156274872382316 C-23.84762228513497 10.768058552431464, -24.100323105629307 10.37984223248061, -24.276846378604244 10.108655082055249 M-23.594921464640635 11.156274872382316 C-23.77317014883119 10.882437026991978, -23.951418833021748 10.608599181601642, -24.276846378604244 10.108655082055249 M-24.276846378604244 10.108655082055249 C-24.436808811957857 9.824625583683085, -24.59677124531147 9.540596085310924, -24.8902489742735 9.019496659696289 M-24.276846378604244 10.108655082055249 C-24.446998021509128 9.806533610355459, -24.617149664414008 9.504412138655669, -24.8902489742735 9.019496659696289 M-24.8902489742735 9.019496659696289 C-25.059949261107896 8.667110383080209, -25.229649547942287 8.314724106464126, -25.43260864880834 7.893275190886686 M-24.8902489742735 9.019496659696289 C-25.073264556191788 8.639460887936826, -25.25628013811008 8.259425116177361, -25.43260864880834 7.893275190886686 M-25.43260864880834 7.893275190886686 C-25.543857774041026 7.618487700706437, -25.65510689927371 7.343700210526189, -25.901696729970325 6.73461856121551 M-25.43260864880834 7.893275190886686 C-25.530998260882924 7.650250946828727, -25.629387872957505 7.407226702770768, -25.901696729970325 6.73461856121551 M-25.901696729970325 6.73461856121551 C-26.025408524314617 6.3620183474481475, -26.14912031865891 5.989418133680786, -26.29558563421488 5.5482879393051325 M-25.901696729970325 6.73461856121551 C-26.022155221231728 6.371816777990355, -26.142613712493134 6.0090149947652005, -26.29558563421488 5.5482879393051325 M-26.29558563421488 5.5482879393051325 C-26.384836522644182 5.207935620144478, -26.47408741107348 4.867583300983823, -26.612656787545557 4.339158212148136 M-26.29558563421488 5.5482879393051325 C-26.38401315486294 5.211075478344192, -26.472440675511006 4.873863017383252, -26.612656787545557 4.339158212148136 M-26.612656787545557 4.339158212148136 C-26.695420000837288 3.9141866039064364, -26.778183214129015 3.4892149956647374, -26.851607276581777 3.112197953150904 M-26.612656787545557 4.339158212148136 C-26.678492278970054 4.001106878019382, -26.744327770394555 3.6630555438906285, -26.851607276581777 3.112197953150904 M-26.851607276581777 3.112197953150904 C-26.89142084950348 2.803411743649404, -26.931234422425185 2.4946255341479042, -27.011455202509364 1.872449005199809 M-26.851607276581777 3.112197953150904 C-26.90422594037019 2.7040979875384252, -26.956844604158597 2.295998021925946, -27.011455202509364 1.872449005199809 M-27.011455202509364 1.872449005199809 C-27.03489178710681 1.5074052824239894, -27.058328371704256 1.1423615596481695, -27.091543715913414 0.6250057626472781 M-27.011455202509364 1.872449005199809 C-27.0315315265065 1.5597440536273117, -27.051607850503643 1.2470391020548142, -27.091543715913414 0.6250057626472781 M-27.091543715913414 0.6250057626472781 C-27.091543715913414 0.19931915740373518, -27.091543715913414 -0.22636744783980778, -27.091543715913414 -0.6250057626472687 M-27.091543715913414 0.6250057626472781 C-27.091543715913414 0.22539820580096537, -27.091543715913414 -0.1742093510453474, -27.091543715913414 -0.6250057626472687 M-27.091543715913414 -0.6250057626472687 C-27.06260486665323 -1.0757516988933102, -27.03366601739305 -1.526497635139352, -27.011455202509367 -1.8724490051997822 M-27.091543715913414 -0.6250057626472687 C-27.069263786629644 -0.9720336452772087, -27.046983857345875 -1.3190615279071487, -27.011455202509367 -1.8724490051997822 M-27.011455202509367 -1.8724490051997822 C-26.97202190538513 -2.1782858707100776, -26.932588608260893 -2.484122736220373, -26.851607276581777 -3.112197953150895 M-27.011455202509367 -1.8724490051997822 C-26.95709753384305 -2.2940363492399323, -26.902739865176738 -2.715623693280082, -26.851607276581777 -3.112197953150895 M-26.851607276581777 -3.112197953150895 C-26.776561751653848 -3.49754086277851, -26.701516226725914 -3.8828837724061245, -26.61265678754556 -4.339158212148126 M-26.851607276581777 -3.112197953150895 C-26.771693787211394 -3.522536831345851, -26.691780297841014 -3.9328757095408067, -26.61265678754556 -4.339158212148126 M-26.61265678754556 -4.339158212148126 C-26.492103636752557 -4.798879624187903, -26.371550485959556 -5.258601036227679, -26.295585634214884 -5.548287939305123 M-26.61265678754556 -4.339158212148126 C-26.52890247956383 -4.6585496878291615, -26.4451481715821 -4.977941163510198, -26.295585634214884 -5.548287939305123 M-26.295585634214884 -5.548287939305123 C-26.21182461829614 -5.8005627737468455, -26.1280636023774 -6.052837608188567, -25.901696729970332 -6.734618561215485 M-26.295585634214884 -5.548287939305123 C-26.147080974856916 -5.995560312287082, -25.998576315498948 -6.44283268526904, -25.901696729970332 -6.734618561215485 M-25.901696729970332 -6.734618561215485 C-25.729499285648306 -7.159949577901992, -25.55730184132628 -7.5852805945885, -25.432608648808344 -7.893275190886676 M-25.901696729970332 -6.734618561215485 C-25.78647576159692 -7.019216580743699, -25.671254793223504 -7.303814600271912, -25.432608648808344 -7.893275190886676 M-25.432608648808344 -7.893275190886676 C-25.23297038455723 -8.307828318178679, -25.033332120306117 -8.72238144547068, -24.890248974273504 -9.019496659696282 M-25.432608648808344 -7.893275190886676 C-25.27703707960376 -8.216322883038332, -25.121465510399172 -8.539370575189986, -24.890248974273504 -9.019496659696282 M-24.890248974273504 -9.019496659696282 C-24.674864614786763 -9.40193339999639, -24.459480255300022 -9.784370140296495, -24.276846378604247 -10.108655082055243 M-24.890248974273504 -9.019496659696282 C-24.659206690556122 -9.42973563000465, -24.42816440683874 -9.83997460031302, -24.276846378604247 -10.108655082055243 M-24.276846378604247 -10.108655082055243 C-24.011213303498362 -10.516738817886036, -23.74558022839248 -10.924822553716828, -23.59492146464064 -11.156274872382308 M-24.276846378604247 -10.108655082055243 C-24.041475933065016 -10.470247292217781, -23.806105487525784 -10.831839502380317, -23.59492146464064 -11.156274872382308 M-23.59492146464064 -11.156274872382308 C-23.43122569711147 -11.37561228788019, -23.267529929582295 -11.594949703378072, -22.847276408126586 -12.158051136245302 M-23.59492146464064 -11.156274872382308 C-23.438141361012274 -11.366345928283055, -23.281361257383903 -11.5764169841838, -22.847276408126586 -12.158051136245302 M-22.847276408126586 -12.158051136245302 C-22.624899751494567 -12.419267410715495, -22.402523094862545 -12.680483685185688, -22.036983442968662 -13.10986736009567 M-22.847276408126586 -12.158051136245302 C-22.551579040891248 -12.505394089456775, -22.25588167365591 -12.852737042668247, -22.036983442968662 -13.10986736009567 M-22.036983442968662 -13.10986736009567 C-21.862022136923354 -13.290529273177821, -21.68706083087805 -13.47119118625997, -21.167372236767996 -14.007812326905677 M-22.036983442968662 -13.10986736009567 C-21.703753544881913 -13.453954588553673, -21.370523646795164 -13.798041817011674, -21.167372236767996 -14.007812326905677 M-21.167372236767996 -14.007812326905677 C-20.84010392747416 -14.305028746361376, -20.512835618180322 -14.602245165817076, -20.242016208501887 -14.848196188198107 M-21.167372236767996 -14.007812326905677 C-20.96989940232143 -14.187151930305161, -20.772426567874867 -14.366491533704645, -20.242016208501887 -14.848196188198107 M-20.242016208501887 -14.848196188198107 C-19.875093137099718 -15.140807573408338, -19.50817006569755 -15.433418958618567, -19.26471784457872 -15.627565626425149 M-20.242016208501887 -14.848196188198107 C-19.890207238763274 -15.128754479534786, -19.538398269024665 -15.409312770871466, -19.26471784457872 -15.627565626425149 M-19.26471784457872 -15.627565626425149 C-19.02742465600232 -15.79309108251947, -18.79013146742592 -15.958616538613795, -18.23949307360571 -16.342718045390885 M-19.26471784457872 -15.627565626425149 C-18.907507375899666 -15.876740185983694, -18.550296907220613 -16.12591474554224, -18.23949307360571 -16.342718045390885 M-18.23949307360571 -16.342718045390885 C-17.863489165836942 -16.57065382392454, -17.487485258068173 -16.798589602458197, -17.17055476407679 -16.99071473040609 M-18.23949307360571 -16.342718045390885 C-18.006222824356882 -16.484127841333674, -17.77295257510805 -16.62553763727646, -17.17055476407679 -16.99071473040609 M-17.17055476407679 -16.99071473040609 C-16.87384248443661 -17.145509336641087, -16.577130204796433 -17.30030394287608, -16.062295412792388 -17.56889292409717 M-17.17055476407679 -16.99071473040609 C-16.733063844902595 -17.21895346271296, -16.2955729257284 -17.44719219501983, -16.062295412792388 -17.56889292409717 M-16.062295412792388 -17.56889292409717 C-15.691479040008513 -17.73304233245172, -15.320662667224637 -17.89719174080627, -14.919269095147806 -18.07487676824742 M-16.062295412792388 -17.56889292409717 C-15.83069021860921 -17.671417673238082, -15.599085024426033 -17.77394242237899, -14.919269095147806 -18.07487676824742 M-14.919269095147806 -18.07487676824742 C-14.508074445385864 -18.22620020040149, -14.096879795623924 -18.377523632555558, -13.746172751460618 -18.506587066708033 M-14.919269095147806 -18.07487676824742 C-14.53030528472717 -18.218019046024263, -14.141341474306534 -18.361161323801106, -13.746172751460618 -18.506587066708033 M-13.746172751460618 -18.506587066708033 C-13.293543117639391 -18.64092516612474, -12.840913483818165 -18.77526326554145, -12.547826886235413 -18.862249829261067 M-13.746172751460618 -18.506587066708033 C-13.350608370894754 -18.623988498500175, -12.95504399032889 -18.74138993029232, -12.547826886235413 -18.862249829261067 M-12.547826886235413 -18.862249829261067 C-12.169063698368385 -18.948700055230926, -11.790300510501357 -19.03515028120079, -11.329155759676768 -19.140403561325773 M-12.547826886235413 -18.862249829261067 C-12.191905788149512 -18.943486497296952, -11.835984690063611 -19.024723165332833, -11.329155759676768 -19.140403561325773 M-11.329155759676768 -19.140403561325773 C-11.02153926189274 -19.190136611085926, -10.71392276410871 -19.23986966084608, -10.09516715284788 -19.3399052695533 M-11.329155759676768 -19.140403561325773 C-10.848907648775965 -19.21804635151649, -10.368659537875164 -19.29568914170721, -10.09516715284788 -19.3399052695533 M-10.09516715284788 -19.3399052695533 C-9.808988402261956 -19.36751258944202, -9.522809651676033 -19.39511990933074, -8.850931789623903 -19.45993515863156 M-10.09516715284788 -19.3399052695533 C-9.685054512201688 -19.379468342763825, -9.274941871555498 -19.41903141597435, -8.850931789623903 -19.45993515863156 M-8.850931789623903 -19.45993515863156 C-8.3806555257604 -19.475016003076444, -7.910379261896898 -19.49009684752133, -7.601562500000006 -19.5 M-8.850931789623903 -19.45993515863156 C-8.35702288463063 -19.475773855879332, -7.863113979637357 -19.4916125531271, -7.601562500000006 -19.5 M-7.601562500000006 -19.5 C-7.601562500000004 -19.5, -7.6015625000000036 -19.5, -7.6015625 -19.5 M-7.601562500000006 -19.5 C-7.601562500000004 -19.5, -7.6015625000000036 -19.5, -7.6015625 -19.5" stroke="#9370DB" stroke-width="1.3" fill="none" stroke-dasharray="0 0" style=""/></g><g class="label" style="" transform="translate(-14.7265625, -12)"><rect/><foreignObject width="29.453125" height="24"><div xmlns="http://www.w3.org/1999/xhtml" style="display: table-cell; white-space: nowrap; line-height: 1.5; max-width: 200px; text-align: center;"><span class="nodeLabel"><p>시작</p></span></div></foreignObject></g></g><g class="node default" id="my-svg-flowchart-MAIN001-1" data-look="classic" transform="translate(315.78125, 124)"><rect class="basic label-container" style="" x="-115.6953125" y="-27" width="231.390625" height="54"/><g class="label" style="" transform="translate(-85.6953125, -12)"><rect/><foreignObject width="171.390625" height="24"><div xmlns="http://www.w3.org/1999/xhtml" style="display: table-cell; white-space: nowrap; line-height: 1.5; max-width: 200px; text-align: center;"><span class="nodeLabel"><p>MAIN-001 메인페이지(홈)</p></span></div></foreignObject></g></g><g class="node default" id="my-svg-flowchart-CATEGORY001-3" data-look="classic" transform="translate(253.28125, 368)"><rect class="basic label-container" style="" x="-130" y="-39" width="260" height="78"/><g class="label" style="" transform="translate(-100, -24)"><rect/><foreignObject width="200" height="48"><div xmlns="http://www.w3.org/1999/xhtml" style="display: table; white-space: break-spaces; line-height: 1.5; max-width: 200px; text-align: center; width: 200px;"><span class="nodeLabel"><p>CATEGORY-001 카테고리 페이지</p></span></div></foreignObject></g></g><g class="node default" id="my-svg-flowchart-BRAND001-4" data-look="classic" transform="translate(138, 240)"><rect class="basic label-container" style="" x="-130" y="-39" width="260" height="78"/><g class="label" style="" transform="translate(-100, -24)"><rect/><foreignObject width="200" height="48"><div xmlns="http://www.w3.org/1999/xhtml" style="display: table; white-space: break-spaces; line-height: 1.5; max-width: 200px; text-align: center; width: 200px;"><span class="nodeLabel"><p>BRAND-001 브랜드 소개 페이지</p></span></div></foreignObject></g></g><g class="node default" id="my-svg-flowchart-TASK001-5" data-look="classic" transform="translate(253.28125, 484)"><rect class="basic label-container" style="" x="-113.953125" y="-27" width="227.90625" height="54"/><g class="label" style="" transform="translate(-83.953125, -12)"><rect/><foreignObject width="167.90625" height="24"><div xmlns="http://www.w3.org/1999/xhtml" style="display: table-cell; white-space: nowrap; line-height: 1.5; max-width: 200px; text-align: center;"><span class="nodeLabel"><p>TASK-001 후기 맥락 확인</p></span></div></foreignObject></g></g><g class="node default" id="my-svg-flowchart-TASK002-6" data-look="classic" transform="translate(503.84375, 588)"><rect class="basic label-container" style="" x="-114.484375" y="-27" width="228.96875" height="54"/><g class="label" style="" transform="translate(-84.484375, -12)"><rect/><foreignObject width="168.96875" height="24"><div xmlns="http://www.w3.org/1999/xhtml" style="display: table-cell; white-space: nowrap; line-height: 1.5; max-width: 200px; text-align: center;"><span class="nodeLabel"><p>TASK-002 신고·정정 상태</p></span></div></foreignObject></g></g></g></g></g><defs><filter id="my-svg-drop-shadow" height="130%" width="130%"><feDropShadow dx="4" dy="4" stdDeviation="0" flood-opacity="0.06" flood-color="#000000"/></filter></defs><defs><filter id="my-svg-drop-shadow-small" height="150%" width="150%"><feDropShadow dx="2" dy="2" stdDeviation="0" flood-opacity="0.06" flood-color="#000000"/></filter></defs></svg>